<svg width="25" height="33" viewBox="0 0 25 33" fill="none" xmlns="http://www.w3.org/2000/svg">
<path d="M14.8335 9C14.8335 9.875 15.4585 10.5 16.3335 10.5H24.8335V31C24.8335 31.875 24.146 32.5 23.3335 32.5H2.3335C1.4585 32.5 0.833496 31.875 0.833496 31V2C0.833496 1.1875 1.4585 0.5 2.3335 0.5H14.8335V9ZM18.8335 23.75V23.25C18.8335 22.875 18.4585 22.5 18.0835 22.5H7.5835C7.146 22.5 6.8335 22.875 6.8335 23.25V23.75C6.8335 24.1875 7.146 24.5 7.5835 24.5H18.0835C18.4585 24.5 18.8335 24.1875 18.8335 23.75ZM18.8335 19.75V19.25C18.8335 18.875 18.4585 18.5 18.0835 18.5H7.5835C7.146 18.5 6.8335 18.875 6.8335 19.25V19.75C6.8335 20.1875 7.146 20.5 7.5835 20.5H18.0835C18.4585 20.5 18.8335 20.1875 18.8335 19.75ZM18.8335 15.25C18.8335 14.875 18.4585 14.5 18.0835 14.5H7.5835C7.146 14.5 6.8335 14.875 6.8335 15.25V15.75C6.8335 16.1875 7.146 16.5 7.5835 16.5H18.0835C18.4585 16.5 18.8335 16.1875 18.8335 15.75V15.25ZM24.8335 8.125V8.5H16.8335V0.5H17.2085C17.5835 0.5 17.9585 0.6875 18.271 0.9375L24.396 7.0625C24.646 7.375 24.8335 7.75 24.8335 8.125Z" fill="url(#paint0_linear_366_945)"/>
<defs>
<linearGradient id="paint0_linear_366_945" x1="5.2085" y1="52.6146" x2="46.8281" y2="31.5927" gradientUnits="userSpaceOnUse">
<stop stop-color="#982DEC"/>
<stop offset="0.572917" stop-color="#DC8DF8"/>
<stop offset="0.895833" stop-color="#A9C4F3"/>
</linearGradient>
</defs>
</svg>
