<svg width="33" height="33" viewBox="0 0 33 33" fill="none" xmlns="http://www.w3.org/2000/svg">
<path d="M29.5 0.5C31.125 0.5 32.5 1.875 32.5 3.5V21.5C32.5 23.1875 31.125 24.5 29.5 24.5H11.5C9.8125 24.5 8.5 23.1875 8.5 21.5V3.5C8.5 1.875 9.8125 0.5 11.5 0.5H29.5ZM11.5 26.5H24.5V29.5C24.5 31.1875 23.125 32.5 21.5 32.5H3.5C1.8125 32.5 0.5 31.1875 0.5 29.5V11.5C0.5 9.875 1.8125 8.5 3.5 8.5H6.5V21.5C6.5 24.3125 8.6875 26.5 11.5 26.5Z" fill="url(#paint0_linear_366_959)"/>
<defs>
<linearGradient id="paint0_linear_366_959" x1="6.33334" y1="52.6146" x2="54.2507" y2="20.3441" gradientUnits="userSpaceOnUse">
<stop stop-color="#982DEC"/>
<stop offset="0.572917" stop-color="#DC8DF8"/>
<stop offset="0.895833" stop-color="#A9C4F3"/>
</linearGradient>
</defs>
</svg>
