<svg width="38" height="33" viewBox="0 0 38 33" fill="none" xmlns="http://www.w3.org/2000/svg">
<path d="M25.9585 5.75L31.5835 11.375C31.8335 11.625 31.8335 12 31.5835 12.25L17.9585 25.875L12.146 26.5C11.396 26.625 10.7085 25.9375 10.8335 25.1875L11.4585 19.375L25.0835 5.75C25.3335 5.5 25.7085 5.5 25.9585 5.75ZM36.0835 4.3125C37.021 5.25 37.021 6.8125 36.0835 7.75L33.896 9.9375C33.646 10.1875 33.271 10.1875 33.021 9.9375L27.396 4.3125C27.146 4.0625 27.146 3.6875 27.396 3.4375L29.5835 1.25C30.521 0.3125 32.0835 0.3125 33.021 1.25L36.0835 4.3125ZM24.8335 22.1875C24.8335 21.9375 24.896 21.75 25.021 21.625L27.521 19.125C28.021 18.6875 28.8335 19 28.8335 19.6875V29.5C28.8335 31.1875 27.4585 32.5 25.8335 32.5H3.8335C2.146 32.5 0.833496 31.1875 0.833496 29.5V7.5C0.833496 5.875 2.146 4.5 3.8335 4.5H21.646C22.3335 4.5 22.646 5.3125 22.2085 5.8125L19.7085 8.3125C19.5835 8.4375 19.396 8.5 19.146 8.5H4.8335V28.5H24.8335V22.1875Z" fill="url(#paint0_linear_366_974)"/>
<defs>
<linearGradient id="paint0_linear_366_974" x1="7.396" y1="52.6146" x2="57.1771" y2="14.8983" gradientUnits="userSpaceOnUse">
<stop stop-color="#982DEC"/>
<stop offset="0.572917" stop-color="#DC8DF8"/>
<stop offset="0.895833" stop-color="#A9C4F3"/>
</linearGradient>
</defs>
</svg>
