<svg width="80" height="88" viewBox="0 0 80 88" fill="none" xmlns="http://www.w3.org/2000/svg">
<g filter="url(#filter0_f_325_1606)">
<ellipse cx="39.744" cy="29.4909" rx="25.3846" ry="16.3673" fill="url(#paint0_radial_325_1606)" fill-opacity="0.2"/>
</g>
<path d="M51 34.0088C52.625 34.0088 54 35.3838 54 37.0088V59.0088C54 60.6963 52.625 62.0088 51 62.0088H29C27.3125 62.0088 26 60.6963 26 59.0088V37.0088C26 35.3838 27.3125 34.0088 29 34.0088H51ZM33.9375 56.0713L35.125 54.0088C34.5 53.1963 33.625 52.9463 32.625 53.2588L31.75 54.8213C31.375 55.3838 31.625 56.1963 32.1875 56.5088C32.8125 56.8838 33.5625 56.6963 33.9375 56.0713ZM42.5625 52.6963C43.125 51.6963 42.4375 50.1963 41.1875 50.1963H37.3125L42.625 40.8838C43 40.3213 42.8125 39.5713 42.1875 39.1963C41.625 38.8838 40.8125 39.0713 40.5 39.6338L39.9375 40.6338L39.375 39.6338C39.0625 39.0713 38.25 38.8838 37.6875 39.1963C37.0625 39.5713 36.875 40.3213 37.1875 40.8838L38.5 43.1338L34.4375 50.1963H31.25C30.5625 50.1963 30 50.7588 30 51.4463C30 52.1338 30.5625 52.6963 31.25 52.6963H42.5625ZM48.75 52.6963C49.4375 52.6963 50 52.1338 50 51.4463C50 50.7588 49.4375 50.1963 48.75 50.1963H45.5C43.8125 47.3838 42.625 45.2588 41.8125 43.8213C41.0625 44.4463 40.3125 46.2588 41.375 48.0713C42.375 49.8213 43.9375 52.5088 46 56.0713C46.3125 56.6338 47.0625 56.8838 47.6875 56.5088C48.25 56.1963 48.5 55.4463 48.125 54.8213L46.9375 52.6963H48.75Z" fill="url(#paint1_linear_325_1606)"/>
<defs>
<filter id="filter0_f_325_1606" x="1.40484" y="0.169001" width="76.6786" height="58.6437" filterUnits="userSpaceOnUse" color-interpolation-filters="sRGB">
<feFlood flood-opacity="0" result="BackgroundImageFix"/>
<feBlend mode="normal" in="SourceGraphic" in2="BackgroundImageFix" result="shape"/>
<feGaussianBlur stdDeviation="6.47727" result="effect1_foregroundBlur_325_1606"/>
</filter>
<radialGradient id="paint0_radial_325_1606" cx="0" cy="0" r="1" gradientUnits="userSpaceOnUse" gradientTransform="translate(39.744 13.1235) rotate(90) scale(24.2566 37.625)">
<stop stop-color="white"/>
<stop offset="1" stop-color="white" stop-opacity="0"/>
</radialGradient>
<linearGradient id="paint1_linear_325_1606" x1="31.1042" y1="79.6755" x2="72.7257" y2="51.3165" gradientUnits="userSpaceOnUse">
<stop stop-color="#982DEC"/>
<stop offset="0.572917" stop-color="#DC8DF8"/>
<stop offset="0.895833" stop-color="#A9C4F3"/>
</linearGradient>
</defs>
</svg>
