<svg width="81" height="88" viewBox="0 0 81 88" fill="none" xmlns="http://www.w3.org/2000/svg">
<g filter="url(#filter0_f_325_1620)">
<ellipse cx="40.41" cy="29.4909" rx="25.3846" ry="16.3673" fill="url(#paint0_radial_325_1620)" fill-opacity="0.2"/>
</g>
<path d="M57.0914 53.9527C52.6212 57.2518 46.1207 59.0087 40.5378 59.0087C32.7095 59.0087 25.6621 56.1195 20.3137 51.2979C19.8841 50.9267 20.2745 50.3997 20.7624 50.6925C26.5212 54.05 33.6465 56.0609 40.9865 56.0609C45.945 56.0609 51.4109 55.0262 56.4279 52.8984C57.2088 52.586 57.8335 53.4059 57.0916 53.9525L57.0914 53.9527ZM58.9657 51.8249C58.3996 51.1026 55.1784 51.4734 53.734 51.6492C53.3045 51.7079 53.2265 51.3171 53.6169 51.0438C56.1741 49.2482 60.3712 49.7556 60.8593 50.3606C61.3471 50.9659 60.7226 55.1825 58.3214 57.193C57.9507 57.5055 57.5994 57.3297 57.7557 56.9197C58.3214 55.5729 59.532 52.5666 58.9657 51.8249Z" fill="url(#paint1_linear_325_1620)"/>
<path d="M21.2075 47.0385C20.2627 47.0385 19.5042 46.7723 18.9321 46.2401C18.3732 45.6945 18.0938 44.9693 18.0938 44.0645C18.0938 43.0931 18.4397 42.3213 19.1317 41.7491C19.8236 41.1637 20.755 40.8709 21.926 40.8709C22.6712 40.8709 23.5095 40.984 24.4409 41.2102V39.8929C24.4409 39.1743 24.2746 38.6687 23.942 38.3759C23.6226 38.0832 23.0704 37.9368 22.2853 37.9368C21.3671 37.9368 20.469 38.0699 19.5907 38.336C19.2847 38.4292 19.0917 38.4757 19.0119 38.4757C18.8522 38.4757 18.7724 38.356 18.7724 38.1165V37.5776C18.7724 37.4046 18.799 37.2782 18.8522 37.1983C18.9054 37.1185 19.0119 37.0453 19.1716 36.9788C19.5841 36.7925 20.103 36.6461 20.7284 36.5396C21.3671 36.4199 21.9992 36.36 22.6246 36.36C23.8887 36.36 24.8202 36.6261 25.419 37.1584C26.0178 37.6774 26.3172 38.4757 26.3172 39.5536V46.3798C26.3172 46.6459 26.1841 46.779 25.918 46.779H25.0597C24.8069 46.779 24.6605 46.6526 24.6206 46.3998L24.5208 45.7411C24.0417 46.1536 23.5095 46.4729 22.924 46.6992C22.3518 46.9254 21.7796 47.0385 21.2075 47.0385ZM21.6865 45.5415C22.1256 45.5415 22.5847 45.455 23.0637 45.282C23.5428 45.109 24.0018 44.8562 24.4409 44.5235V42.4876C23.7224 42.3147 23.0172 42.2282 22.3252 42.2282C20.8216 42.2282 20.0698 42.807 20.0698 43.9647C20.0698 44.4703 20.2095 44.8629 20.4889 45.1423C20.7684 45.4084 21.1675 45.5415 21.6865 45.5415Z" fill="url(#paint2_linear_325_1620)"/>
<path d="M31.3339 46.8788C30.6287 46.8788 30.0898 46.6792 29.7172 46.28C29.3446 45.8675 29.1583 45.282 29.1583 44.5235V32.408C29.1583 32.1419 29.2914 32.0088 29.5575 32.0088H30.7351C31.0012 32.0088 31.1343 32.1419 31.1343 32.408V44.4038C31.1343 44.7098 31.1942 44.936 31.314 45.0824C31.447 45.2155 31.6599 45.282 31.9527 45.282C32.0325 45.282 32.1123 45.2754 32.1922 45.262C32.2853 45.2487 32.3652 45.2421 32.4317 45.2421C32.5648 45.2421 32.6513 45.2754 32.6912 45.3419C32.7444 45.4084 32.771 45.5082 32.771 45.6413V46.28C32.771 46.4131 32.7377 46.5195 32.6712 46.5993C32.618 46.6659 32.5182 46.7191 32.3718 46.759C32.0392 46.8389 31.6932 46.8788 31.3339 46.8788Z" fill="url(#paint3_linear_325_1620)"/>
<path d="M39.2012 47.0784C37.5645 47.0784 36.327 46.626 35.4887 45.7211C34.6503 44.8163 34.2312 43.479 34.2312 41.7092C34.2312 40.0193 34.6503 38.7086 35.4887 37.7772C36.327 36.8324 37.4979 36.36 39.0016 36.36C40.2657 36.36 41.2371 36.7193 41.9157 37.4378C42.5943 38.1431 42.8824 38.5424 42.8824 39.8464C42.8824 40.7117 42.2551 41.474 41.4888 41.876C41.4792 41.8811 41.4697 41.8859 41.4603 41.8906C40.927 42.1573 39.9935 42.1483 39.8605 42.1483H36.1473C36.1739 43.2927 36.4534 44.1377 36.9856 44.6832C37.5312 45.2288 38.3695 45.5016 39.5006 45.5016C39.8998 45.5016 40.279 45.475 40.6383 45.4217C41.0108 45.3685 41.4766 45.2554 42.0354 45.0824C42.1286 45.0558 42.2084 45.0358 42.275 45.0225C42.3415 44.9959 42.4014 44.9826 42.4546 44.9826C42.6276 44.9826 42.7141 45.1024 42.7141 45.3419V45.9008C42.7141 46.0737 42.6875 46.2002 42.6342 46.28C42.581 46.3465 42.4679 46.4197 42.2949 46.4996C41.8957 46.6725 41.4167 46.8123 40.8578 46.9187C40.3123 47.0252 39.76 47.0784 39.2012 47.0784ZM39.9423 40.831C40.5556 40.831 41.0159 40.3709 41.0159 39.7575C41.0159 39.2243 40.9443 38.8882 40.5584 38.4757C40.1858 38.0632 39.6336 37.857 38.9018 37.857C38.0635 37.857 37.4114 38.1098 36.9457 38.6155C36.48 39.1078 36.2139 39.8463 36.1473 40.831H39.9423Z" fill="url(#paint4_linear_325_1620)"/>
<path d="M44.3567 46.779C44.2635 46.779 44.1904 46.759 44.1371 46.7191C44.0839 46.6659 44.0573 46.606 44.0573 46.5395C44.0573 46.433 44.1371 46.2733 44.2968 46.0604L47.4505 41.5895L44.4964 37.378C44.3367 37.1651 44.2569 37.0054 44.2569 36.8989C44.2569 36.7392 44.3567 36.6594 44.5563 36.6594H45.7539C45.9136 36.6594 46.04 36.686 46.1331 36.7392C46.2263 36.7792 46.3061 36.8524 46.3726 36.9588L48.5682 40.1923L50.7438 36.9588C50.8103 36.8524 50.8902 36.7792 50.9833 36.7392C51.0898 36.686 51.2228 36.6594 51.3825 36.6594H52.4603C52.6599 36.6594 52.7597 36.7392 52.7597 36.8989C52.7597 37.0054 52.6799 37.1651 52.5202 37.378L49.5861 41.4697L52.7797 46.0604C52.9394 46.2866 53.0192 46.4463 53.0192 46.5395C53.0192 46.606 52.9926 46.6659 52.9394 46.7191C52.8862 46.759 52.813 46.779 52.7198 46.779H51.5023C51.3426 46.779 51.2162 46.759 51.123 46.7191C51.0299 46.6659 50.9501 46.586 50.8835 46.4796L48.4684 42.9068L46.0932 46.4796C46.0267 46.586 45.9402 46.6659 45.8337 46.7191C45.7406 46.759 45.6142 46.779 45.4545 46.779H44.3567Z" fill="url(#paint5_linear_325_1620)"/>
<path d="M57.1997 47.0385C56.2549 47.0385 55.4965 46.7723 54.9243 46.2401C54.3654 45.6945 54.086 44.9693 54.086 44.0645C54.086 43.0931 54.4319 42.3213 55.1239 41.7491C55.8158 41.1637 56.7473 40.8709 57.9182 40.8709C58.6634 40.8709 59.5017 40.984 60.4332 41.2102V39.8929C60.4332 39.1743 60.2668 38.6687 59.9342 38.3759C59.6148 38.0832 59.0626 37.9368 58.2775 37.9368C57.3594 37.9368 56.4612 38.0699 55.583 38.336C55.2769 38.4292 55.084 38.4757 55.0041 38.4757C54.8444 38.4757 54.7646 38.356 54.7646 38.1165V37.5776C54.7646 37.4046 54.7912 37.2782 54.8444 37.1983C54.8977 37.1185 55.0041 37.0453 55.1638 36.9788C55.5763 36.7925 56.0953 36.6461 56.7207 36.5396C57.3594 36.4199 57.9914 36.36 58.6168 36.36C59.8809 36.36 60.8124 36.6261 61.4112 37.1584C62.01 37.6774 62.3094 38.4757 62.3094 39.5536V46.3798C62.3094 46.6459 62.1763 46.779 61.9102 46.779H61.0519C60.7991 46.779 60.6527 46.6526 60.6128 46.3998L60.513 45.7411C60.034 46.1536 59.5017 46.4729 58.9162 46.6992C58.344 46.9254 57.7719 47.0385 57.1997 47.0385ZM57.6787 45.5415C58.1178 45.5415 58.5769 45.455 59.0559 45.282C59.535 45.109 59.9941 44.8562 60.4332 44.5235V42.4876C59.7146 42.3147 59.0094 42.2282 58.3174 42.2282C56.8138 42.2282 56.062 42.807 56.062 43.9647C56.062 44.4703 56.2017 44.8629 56.4811 45.1423C56.7606 45.4084 57.1598 45.5415 57.6787 45.5415Z" fill="url(#paint6_linear_325_1620)"/>
<defs>
<filter id="filter0_f_325_1620" x="2.07086" y="0.169001" width="76.6786" height="58.6437" filterUnits="userSpaceOnUse" color-interpolation-filters="sRGB">
<feFlood flood-opacity="0" result="BackgroundImageFix"/>
<feBlend mode="normal" in="SourceGraphic" in2="BackgroundImageFix" result="shape"/>
<feGaussianBlur stdDeviation="6.47727" result="effect1_foregroundBlur_325_1620"/>
</filter>
<radialGradient id="paint0_radial_325_1620" cx="0" cy="0" r="1" gradientUnits="userSpaceOnUse" gradientTransform="translate(40.41 13.1235) rotate(90) scale(24.2566 37.625)">
<stop stop-color="white"/>
<stop offset="1" stop-color="white" stop-opacity="0"/>
</radialGradient>
<linearGradient id="paint1_linear_325_1620" x1="27.5818" y1="63.5167" x2="34.4512" y2="39.7658" gradientUnits="userSpaceOnUse">
<stop stop-color="#982DEC"/>
<stop offset="0.572917" stop-color="#DC8DF8"/>
<stop offset="0.895833" stop-color="#A9C4F3"/>
</linearGradient>
<linearGradient id="paint2_linear_325_1620" x1="26.1539" y1="54.4562" x2="41.6261" y2="19.106" gradientUnits="userSpaceOnUse">
<stop stop-color="#982DEC"/>
<stop offset="0.572917" stop-color="#DC8DF8"/>
<stop offset="0.895833" stop-color="#A9C4F3"/>
</linearGradient>
<linearGradient id="paint3_linear_325_1620" x1="26.1539" y1="54.4562" x2="41.6261" y2="19.106" gradientUnits="userSpaceOnUse">
<stop stop-color="#982DEC"/>
<stop offset="0.572917" stop-color="#DC8DF8"/>
<stop offset="0.895833" stop-color="#A9C4F3"/>
</linearGradient>
<linearGradient id="paint4_linear_325_1620" x1="26.1539" y1="54.4562" x2="41.6261" y2="19.106" gradientUnits="userSpaceOnUse">
<stop stop-color="#982DEC"/>
<stop offset="0.572917" stop-color="#DC8DF8"/>
<stop offset="0.895833" stop-color="#A9C4F3"/>
</linearGradient>
<linearGradient id="paint5_linear_325_1620" x1="26.1539" y1="54.4562" x2="41.6261" y2="19.106" gradientUnits="userSpaceOnUse">
<stop stop-color="#982DEC"/>
<stop offset="0.572917" stop-color="#DC8DF8"/>
<stop offset="0.895833" stop-color="#A9C4F3"/>
</linearGradient>
<linearGradient id="paint6_linear_325_1620" x1="26.1539" y1="54.4562" x2="41.6261" y2="19.106" gradientUnits="userSpaceOnUse">
<stop stop-color="#982DEC"/>
<stop offset="0.572917" stop-color="#DC8DF8"/>
<stop offset="0.895833" stop-color="#A9C4F3"/>
</linearGradient>
</defs>
</svg>
