<svg width="300" height="369" viewBox="0 0 300 369" fill="none" xmlns="http://www.w3.org/2000/svg">
<g opacity="0.0636858">
<mask id="mask0_490_2241" style="mask-type:luminance" maskUnits="userSpaceOnUse" x="68" y="55" width="1063" height="1201">
<path fill-rule="evenodd" clip-rule="evenodd" d="M68.459 55.8291H1130.55V1255.09H68.459V55.8291Z" fill="white"/>
</mask>
<g mask="url(#mask0_490_2241)">
<path fill-rule="evenodd" clip-rule="evenodd" d="M1128.61 554.537C1128.94 545.984 1125.43 537.955 1119.22 533.065L521.595 62.4621C516.779 58.667 510.939 57.2184 505.155 58.3798C499.375 59.5449 494.338 63.1797 490.983 68.621L74.3257 743.292C71.936 747.161 70.5756 751.691 70.3943 756.384C70.0648 764.939 73.578 772.964 79.7886 777.861L677.409 1248.46C682.23 1252.26 688.064 1253.71 693.851 1252.54C699.631 1251.38 704.668 1247.75 708.025 1242.3L1124.68 567.635C1127.07 563.763 1128.43 559.232 1128.61 554.537M68.4822 756.291C68.6811 751.186 70.1605 746.265 72.7592 742.057L489.411 67.3856C493.063 61.473 498.536 57.5204 504.822 56.2541C511.108 54.9906 517.453 56.5661 522.691 60.6895L1120.31 531.294C1127.07 536.613 1130.88 545.337 1130.53 554.635C1130.33 559.739 1128.85 564.66 1126.25 568.871L709.594 1243.54C705.944 1249.45 700.474 1253.4 694.187 1254.67C687.902 1255.94 681.556 1254.36 676.316 1250.23L78.6975 779.628C71.9441 774.313 68.1231 765.587 68.4822 756.291" fill="#DADADA" fill-opacity="0.6"/>
</g>
<path fill-rule="evenodd" clip-rule="evenodd" d="M1100.85 547.733C1101.17 539.527 1097.83 531.777 1091.93 527.001L514.584 59.9442C509.937 56.1806 504.268 54.6881 498.625 55.7388C492.981 56.7913 488.04 60.262 484.708 65.5105L71.1914 717.282C68.7655 721.11 67.3865 725.605 67.2061 730.283C66.8892 738.491 70.2254 746.243 76.1326 751.014L653.473 1218.08C663.075 1225.84 676.474 1223.34 683.346 1212.51L1096.86 560.735C1099.29 556.909 1100.67 552.411 1100.85 547.733M65.2961 730.186C65.4908 725.091 66.9938 720.193 69.638 716.025L483.156 64.2549C486.783 58.536 492.167 54.7571 498.312 53.61C504.459 52.4649 510.633 54.091 515.698 58.1876L1093.04 525.247C1099.47 530.45 1103.11 538.889 1102.76 547.827C1102.56 552.925 1101.07 557.827 1098.42 561.993L684.9 1213.76C677.414 1225.57 662.811 1228.29 652.359 1219.83L75.0174 752.772C68.586 747.57 64.9497 739.128 65.2961 730.186" fill="#DADADA" fill-opacity="0.6"/>
<path fill-rule="evenodd" clip-rule="evenodd" d="M1073.09 540.925C1073.39 533.069 1070.23 525.594 1064.64 520.934L507.574 57.424C498.324 49.7278 485.255 51.9617 478.438 62.4033L68.0601 691.277C65.5938 695.052 64.1945 699.519 64.0142 704.187C63.7107 712.044 66.8733 719.515 72.4736 724.173L629.53 1187.69C634.015 1191.42 639.511 1192.95 645.015 1192.01C650.521 1191.07 655.37 1187.76 658.671 1182.71L1069.05 553.832C1071.52 550.058 1072.91 545.594 1073.09 540.925M62.1039 704.088C62.3011 698.991 63.8259 694.119 66.5182 689.998L476.899 61.123C484.34 49.7214 498.609 47.2833 508.707 55.6856L1065.77 519.196C1071.88 524.286 1075.33 532.446 1075 541.022C1074.81 546.119 1073.28 550.991 1070.59 555.116L660.21 1183.99C656.604 1189.51 651.313 1193.12 645.302 1194.14C639.295 1195.17 633.292 1193.5 628.401 1189.43L71.3396 725.914C65.2269 720.826 61.7726 712.669 62.1039 704.088" fill="#DADADA" fill-opacity="0.6"/>
<path fill-rule="evenodd" clip-rule="evenodd" d="M1045.34 534.117C1045.63 526.605 1042.64 519.411 1037.34 514.87L500.562 54.9047C496.247 51.2088 490.92 49.6304 485.556 50.4597C480.196 51.288 475.438 54.4266 472.168 59.2962L64.9204 665.274C62.4161 669.005 60.9958 673.433 60.8163 678.089C60.5263 685.6 63.5153 692.793 68.8138 697.334L605.598 1157.3C614.497 1164.92 627.234 1162.96 633.99 1152.91L1041.24 546.933C1043.74 543.205 1045.16 538.774 1045.34 534.117M58.908 677.992C59.1027 672.896 60.6571 668.044 63.399 663.968L470.643 57.9911C474.226 52.6625 479.43 49.229 485.297 48.3196C491.166 47.413 496.996 49.1412 501.718 53.1844L1038.5 513.152C1044.3 518.12 1047.57 525.992 1047.25 534.213C1047.05 539.309 1045.5 544.161 1042.76 548.24L635.514 1154.21C628.12 1165.21 614.182 1167.37 604.44 1159.02L67.6608 699.052C61.8616 694.083 58.5894 686.216 58.908 677.992" fill="#DADADA" fill-opacity="0.6"/>
<path fill-rule="evenodd" clip-rule="evenodd" d="M1017.59 527.313C1017.87 520.141 1015.05 513.222 1010.05 508.804L493.549 52.384C489.404 48.7235 484.246 47.1012 479.023 47.8207C473.797 48.5393 469.137 51.5109 465.895 56.1897L61.7837 639.269C59.2356 642.942 57.7959 647.337 57.6164 651.985C57.339 659.157 60.1603 666.075 65.1587 670.494L581.657 1126.92C585.804 1130.57 590.959 1132.2 596.184 1131.48C601.408 1130.76 606.07 1127.79 609.314 1123.11L1013.42 540.031C1015.97 536.359 1017.41 531.959 1017.59 527.313M55.7059 651.889C55.9048 646.788 57.4836 641.968 60.2778 637.932L464.389 54.8583C467.946 49.7263 473.062 46.4656 478.79 45.6783C484.521 44.8891 490.179 46.6669 494.729 50.6853L1011.22 507.105C1016.71 511.95 1019.8 519.541 1019.5 527.407C1019.3 532.506 1017.72 537.332 1014.93 541.365L610.82 1124.44C607.262 1129.58 602.146 1132.84 596.417 1133.62C590.686 1134.41 585.025 1132.63 580.482 1128.62L63.9799 672.196C58.4959 667.348 55.4033 659.757 55.7059 651.889" fill="#DADADA" fill-opacity="0.6"/>
<path fill-rule="evenodd" clip-rule="evenodd" d="M989.845 520.507C990.108 513.674 987.458 507.035 982.753 502.741L486.534 49.8654C478.326 42.3744 466.252 43.8173 459.621 53.0832L58.6427 613.268C56.0558 616.88 54.5883 621.247 54.4087 625.886C54.144 632.72 56.7975 639.358 61.501 643.652L557.719 1096.53C561.697 1100.16 566.686 1101.82 571.767 1101.21C576.853 1100.6 581.422 1097.8 584.633 1093.31L985.611 533.13C988.202 529.512 989.668 525.145 989.845 520.507M52.5003 625.792C52.6959 620.689 54.3084 615.889 57.1583 611.907L458.133 51.7259C465.427 41.5343 478.707 39.9464 487.736 48.1846L983.958 501.063C989.13 505.78 992.045 513.086 991.756 520.6C991.56 525.702 989.948 530.504 987.099 534.489L586.122 1094.66C582.59 1099.6 577.561 1102.69 571.972 1103.36C566.379 1104.03 560.892 1102.2 556.52 1098.21L60.3006 645.332C55.1252 640.611 52.2095 633.305 52.5003 625.792" fill="#DADADA" fill-opacity="0.6"/>
<path fill-rule="evenodd" clip-rule="evenodd" d="M962.105 513.698C962.362 507.109 959.938 500.902 955.461 496.673L479.523 47.3423C475.712 43.7495 470.895 42.0423 465.95 42.5404C461.005 43.0376 456.531 45.68 453.348 49.9789L55.507 587.261C52.867 590.826 51.3776 595.154 51.1997 599.783C50.946 606.376 53.3719 612.585 57.8478 616.812L533.787 1066.14C541.649 1073.57 553.389 1072.38 559.959 1063.51L957.798 526.226C960.437 522.663 961.928 518.331 962.105 513.698M49.2919 599.686C49.4866 594.584 51.1295 589.806 54.0392 585.873L451.88 48.5934C455.392 43.8507 460.327 40.9373 465.78 40.3905C471.233 39.8409 476.549 41.7237 480.749 45.6877L956.686 495.015C961.625 499.679 964.297 506.521 964.018 513.796C963.821 518.906 962.178 523.68 959.265 527.609L561.427 1064.89C554.178 1074.68 541.23 1075.98 532.558 1067.8L56.621 618.473C51.6807 613.808 49.0087 606.962 49.2919 599.686" fill="#DADADA" fill-opacity="0.6"/>
<path fill-rule="evenodd" clip-rule="evenodd" d="M934.374 506.894C934.615 500.635 932.353 494.702 928.167 490.602L472.509 44.8241C468.869 41.2589 464.219 39.5098 459.412 39.8991C454.607 40.2865 450.227 42.7619 447.071 46.8719L52.3709 561.255C49.6786 564.763 48.1631 569.058 47.9844 573.685C47.7425 579.942 50.0065 585.879 54.1916 589.977L509.848 1035.76C513.491 1039.32 518.142 1041.07 522.947 1040.68C527.748 1040.3 532.13 1037.82 535.285 1033.71L929.986 519.323C932.679 515.819 934.198 511.52 934.374 506.894M46.0739 573.591C46.2711 568.473 47.951 563.72 50.9257 559.843L445.626 45.4582C449.115 40.9111 453.963 38.1723 459.277 37.7448C464.592 37.3154 469.736 39.2497 473.761 43.1899L929.416 488.97C934.051 493.504 936.549 500.07 936.286 506.988C936.086 512.103 934.41 516.857 931.436 520.74L536.73 1035.12C533.244 1039.67 528.396 1042.41 523.083 1042.84C517.769 1043.26 512.624 1041.33 508.6 1037.39L52.9402 591.606C48.3084 587.074 45.8084 580.51 46.0739 573.591" fill="#DADADA" fill-opacity="0.6"/>
<path fill-rule="evenodd" clip-rule="evenodd" d="M906.645 500.087C906.874 494.164 904.768 488.496 900.867 484.533L465.49 42.2958C462.019 38.7679 457.537 36.9796 452.873 37.2583C448.209 37.535 443.918 39.8462 440.796 43.7673L49.2279 535.254C46.5213 538.647 44.935 543.029 44.7588 547.584C44.532 553.506 46.6376 559.176 50.5361 563.136L485.913 1005.38C489.383 1008.9 493.864 1010.69 498.533 1010.42C503.194 1010.14 507.484 1007.83 510.61 1003.91L902.175 512.419C904.883 509.025 906.471 504.642 906.645 500.087M42.8485 547.492C43.0457 542.436 44.8032 537.574 47.8073 533.811L439.374 42.3238C442.838 37.9762 447.598 35.4092 452.774 35.101C457.949 34.7927 462.92 36.7805 466.772 40.693L902.148 482.931C906.474 487.323 908.809 493.612 908.555 500.182C908.359 505.237 906.599 510.093 903.598 513.864L512.031 1005.35C508.567 1009.7 503.808 1012.26 498.632 1012.57C493.46 1012.88 488.486 1010.9 484.635 1006.98L49.2571 564.738C44.9304 560.349 42.5973 554.059 42.8485 547.492" fill="#DADADA" fill-opacity="0.6"/>
<path fill-rule="evenodd" clip-rule="evenodd" d="M878.927 493.281C879.142 487.687 877.192 482.287 873.573 478.462L458.477 39.7732C455.172 36.2786 450.857 34.4464 446.334 34.6163C441.81 34.7852 437.612 36.9323 434.517 40.6654L46.0874 509.252C43.3243 512.585 41.7059 516.93 41.5297 521.486C41.3148 527.081 43.2653 532.48 46.8788 536.304L461.978 974.991C468.8 982.205 479.549 981.806 485.936 974.104L874.369 505.515C877.132 502.181 878.749 497.838 878.927 493.281M39.6194 521.393C39.8166 516.322 41.6179 511.486 44.6903 507.778L433.122 39.1905C436.565 35.0366 441.233 32.6461 446.268 32.4591C451.305 32.2721 456.104 34.3085 459.784 38.1981L874.88 476.889C878.907 481.142 881.076 487.15 880.837 493.376C880.64 498.445 878.84 503.279 875.765 506.992L487.331 975.58C480.224 984.152 468.262 984.596 460.672 976.569L45.5745 537.879C41.5505 533.627 39.3808 527.614 39.6194 521.393" fill="#DADADA" fill-opacity="0.6"/>
<path fill-rule="evenodd" clip-rule="evenodd" d="M851.214 486.474C851.416 481.209 849.619 476.074 846.279 472.393L451.464 37.2455C444.983 30.1047 434.564 30.2469 428.241 37.5623L42.9451 483.252C40.1214 486.513 38.4676 490.828 38.2931 495.381C38.0883 500.654 39.8887 505.785 43.2292 509.466L438.044 944.616C444.527 951.754 454.942 951.608 461.263 944.296L846.56 498.61C849.383 495.343 851.037 491.032 851.214 486.474M36.3845 495.286C36.5792 490.201 38.426 485.389 41.5777 481.742L426.875 36.0522C433.935 27.8865 445.563 27.7291 452.797 35.7029L847.614 470.848C851.342 474.957 853.352 480.688 853.124 486.571C852.929 491.658 851.084 496.473 847.929 500.119L462.632 945.805C455.574 953.972 443.945 954.132 436.708 946.158L41.8963 511.009C38.1664 506.901 36.1578 501.17 36.3845 495.286" fill="#DADADA" fill-opacity="0.6"/>
<path fill-rule="evenodd" clip-rule="evenodd" d="M823.509 479.669C823.702 474.72 822.049 469.857 818.983 466.323L444.446 34.7198C438.309 27.6496 428.224 27.5322 421.963 34.4573L39.8031 457.246C36.9145 460.444 35.2236 464.717 35.0457 469.283C34.8561 474.231 36.5099 479.094 39.5764 482.632L414.107 914.237C420.247 921.307 430.33 921.421 436.594 914.49L818.754 491.705C821.643 488.508 823.333 484.232 823.509 479.669M33.1357 469.188C33.3338 464.077 35.2295 459.289 38.4655 455.705L420.624 32.9144C427.639 25.1562 438.936 25.2889 445.811 33.2083L820.348 464.81C823.786 468.77 825.633 474.22 825.421 479.762C825.223 484.877 823.328 489.664 820.091 493.247L437.933 916.039C430.922 923.796 419.62 923.665 412.746 915.747L38.2092 484.146C34.7735 480.183 32.9225 474.73 33.1357 469.188" fill="#DADADA" fill-opacity="0.6"/>
<path fill-rule="evenodd" clip-rule="evenodd" d="M795.812 472.864C795.993 468.163 794.528 463.681 791.679 460.243L437.424 32.1922C434.622 28.8027 430.813 26.8464 426.708 26.689C422.6 26.5315 418.684 28.19 415.681 31.3563L36.6593 431.248C33.6965 434.373 31.9694 438.61 31.7924 443.183C31.6111 447.882 33.0761 452.365 35.9201 455.803L390.177 883.855C395.97 890.853 405.722 891.223 411.922 884.689L790.946 484.797C793.909 481.674 795.633 477.435 795.812 472.864M29.8824 443.084C30.0813 437.942 32.0225 433.185 35.3495 429.673L414.376 29.7788C417.752 26.2165 422.153 24.3538 426.774 24.5322C431.39 24.7088 435.669 26.9065 438.827 30.7178L793.079 458.77C796.279 462.635 797.927 467.675 797.725 472.959C797.526 478.1 795.582 482.866 792.25 486.375L413.227 886.269C406.262 893.616 395.293 893.199 388.78 885.333L34.5251 457.276C31.3288 453.408 29.6767 448.374 29.8824 443.084" fill="#DADADA" fill-opacity="0.6"/>
<path fill-rule="evenodd" clip-rule="evenodd" d="M768.127 466.058C768.298 461.67 766.968 457.452 764.386 454.17L430.411 29.662C424.96 22.735 415.536 22.1023 409.401 28.2526L33.5124 405.25C30.4753 408.294 28.7061 412.494 28.5299 417.079C28.3613 421.463 29.6898 425.689 32.2724 428.969L366.247 853.478C371.698 860.407 381.119 861.039 387.259 854.884L763.144 477.89C766.183 474.845 767.953 470.641 768.127 466.058M26.6177 416.985C26.8183 411.816 28.8169 407.072 32.245 403.636L408.131 26.6382C415.053 19.6978 425.689 20.4107 431.841 28.2271L765.817 452.738C768.729 456.439 770.231 461.203 770.039 466.153C769.84 471.327 767.841 476.066 764.416 479.505L388.527 856.506C381.602 863.441 370.966 862.731 364.814 854.911L30.8415 430.408C27.9276 426.701 26.4272 421.936 26.6177 416.985" fill="#DADADA" fill-opacity="0.6"/>
<path fill-rule="evenodd" clip-rule="evenodd" d="M740.454 459.254C740.612 455.18 739.415 451.214 737.089 448.09L423.393 27.1299C420.921 23.8091 417.447 21.7736 413.62 21.4024C409.789 21.0293 406.059 22.3605 403.119 25.1546L30.3656 379.254C27.2932 382.172 25.4321 386.445 25.2559 390.979C25.0991 395.054 26.2918 399.017 28.6199 402.143L342.314 823.106C347.422 829.959 356.519 830.844 362.59 825.077L735.343 470.983C738.415 468.064 740.279 463.788 740.454 459.254M23.3437 390.885C23.5426 385.745 25.6532 380.905 29.1319 377.602L401.886 23.5019C405.22 20.3385 409.442 18.8269 413.782 19.2506C418.121 19.6734 422.053 21.9789 424.856 25.7396L738.549 446.702C741.187 450.241 742.54 454.732 742.363 459.347C742.166 464.485 740.054 469.328 736.573 472.636L363.819 826.731C356.942 833.265 346.636 832.26 340.851 824.495L27.1587 403.53C24.5204 399.993 23.1658 395.502 23.3437 390.885" fill="#DADADA" fill-opacity="0.6"/>
<path fill-rule="evenodd" clip-rule="evenodd" d="M712.787 452.45C712.932 448.677 711.867 444.971 709.787 442.011L416.372 24.5976C414.061 21.3121 410.757 19.2365 407.065 18.7565C403.375 18.2756 399.741 19.4474 396.834 22.0526L27.213 353.255C24.0546 356.085 22.1429 360.32 21.9659 364.879C21.8226 368.646 22.8872 372.353 24.9667 375.316L318.378 792.732C323.147 799.517 331.913 800.657 337.922 795.273L707.538 464.077C710.699 461.245 712.613 457.006 712.787 452.45M20.0559 364.781C20.2532 359.601 22.4312 354.784 26.0279 351.562L395.643 20.3616C398.953 17.3967 403.087 16.0645 407.285 16.6113C411.484 17.1581 415.243 19.5171 417.871 23.2559L711.284 440.67C713.651 444.036 714.864 448.255 714.698 452.545C714.498 457.726 712.325 462.546 708.729 465.765L339.107 796.967C332.283 803.088 322.308 801.79 316.884 794.075L23.4689 376.662C21.1045 373.289 19.8907 369.071 20.0559 364.781" fill="#DADADA" fill-opacity="0.6"/>
<path fill-rule="evenodd" clip-rule="evenodd" d="M685.139 445.649C685.273 442.175 684.331 438.724 682.489 435.929L409.354 22.0605C404.925 15.351 396.488 13.9568 390.543 18.9543L24.0679 327.258C20.8118 329.994 18.8427 334.192 18.6666 338.771C18.5342 342.245 19.4766 345.693 21.3175 348.493L294.454 762.365C298.881 769.073 307.318 770.465 313.259 765.468L679.742 457.166C682.997 454.429 684.961 450.232 685.139 445.649M16.7564 338.677C16.9579 333.442 19.2085 328.65 22.9249 325.52L389.402 17.2225C396.19 11.5122 405.83 13.1049 410.889 20.7705L684.021 434.64C686.126 437.83 687.206 441.773 687.05 445.743C686.849 450.977 684.601 455.77 680.884 458.899L314.404 767.197C307.616 772.907 297.979 771.312 292.919 763.652L19.785 349.782C17.6803 346.588 16.6039 342.645 16.7564 338.677" fill="#DADADA" fill-opacity="0.6"/>
<path fill-rule="evenodd" clip-rule="evenodd" d="M657.504 438.849C657.627 435.62 656.829 432.507 655.191 429.847L402.337 19.5222C398.247 12.8844 390.138 11.2401 384.257 15.855L20.9123 301.26C17.5583 303.896 15.532 308.052 15.3541 312.666C15.2311 315.896 16.0318 319.007 17.6704 321.665L270.521 731.994C274.611 738.636 282.72 740.278 288.601 735.659L651.948 450.257C655.302 447.624 657.325 443.462 657.504 438.849M13.4442 312.571C13.6474 307.28 15.973 302.508 19.8225 299.486L383.164 14.0839C389.909 8.78866 399.213 10.6743 403.904 18.2884L656.758 428.614C658.638 431.665 659.558 435.235 659.413 438.942C659.209 444.236 656.886 449.006 653.042 452.03L289.692 737.435C282.948 742.731 273.643 740.844 268.953 733.23L16.1002 322.903C14.2189 319.852 13.3009 316.281 13.4442 312.571" fill="#DADADA" fill-opacity="0.6"/>
<path fill-rule="evenodd" clip-rule="evenodd" d="M629.884 432.049C629.998 429.107 629.31 426.242 627.888 423.76L395.316 16.9792C391.562 10.4187 383.78 8.52253 377.965 12.7576L17.7563 275.26C14.3442 277.751 12.199 281.974 12.0237 286.563C11.9107 289.503 12.6019 292.365 14.0222 294.847L246.592 701.633C250.345 708.192 258.127 710.086 263.942 705.849L624.153 443.346C627.563 440.859 629.705 436.636 629.884 432.049M10.1136 286.467C10.3176 281.178 12.7882 276.312 16.7203 273.448L376.928 10.943C383.626 6.06097 392.596 8.24625 396.922 15.8098L629.493 422.589C631.13 425.449 631.925 428.753 631.794 432.142C631.591 437.428 629.122 442.297 625.187 445.158L264.979 707.664C258.281 712.544 249.311 710.363 244.987 702.801L12.4114 296.023C10.7795 293.159 9.98211 289.857 10.1136 286.467" fill="#DADADA" fill-opacity="0.6"/>
<path fill-rule="evenodd" clip-rule="evenodd" d="M602.278 425.246C602.382 422.59 601.795 419.969 600.588 417.671L388.298 14.4358C384.878 7.94583 377.42 5.80159 371.672 9.65779L14.6004 249.265C11.0703 251.632 8.85429 255.817 8.67559 260.453C8.57276 263.113 9.15942 265.732 10.369 268.033L222.66 671.267C226.079 677.758 233.536 679.902 239.282 676.042L596.358 436.436C599.888 434.068 602.099 429.885 602.278 425.246M6.76725 260.359C6.97461 254.99 9.53621 250.148 13.6218 247.41L370.693 7.80181C377.351 3.33679 385.984 5.8198 389.938 13.3337L602.229 416.565C603.632 419.228 604.308 422.26 604.191 425.344C603.983 430.712 601.42 435.552 597.335 438.295L240.26 677.902C233.607 682.365 224.973 679.884 221.018 672.371L8.72533 269.136C7.32526 266.476 6.6484 263.438 6.76725 260.359" fill="#DADADA" fill-opacity="0.6"/>
<path fill-rule="evenodd" clip-rule="evenodd" d="M574.695 418.452C574.787 416.066 574.301 413.687 573.284 411.577L381.274 11.8893C378.19 5.47093 371.059 3.07953 365.372 6.55974L11.4363 223.265C7.7814 225.505 5.49121 229.644 5.30999 234.342C5.21727 236.729 5.70363 239.107 6.71849 241.219L198.731 640.907C201.815 647.324 208.946 649.717 214.632 646.235L568.569 429.526C572.224 427.288 574.514 423.151 574.695 418.452M3.39968 234.25C3.60704 228.869 6.33638 223.935 10.5257 221.371L364.462 4.66178C371.073 0.61569 379.37 3.39642 382.956 10.8617L574.967 410.548C576.147 413.007 576.71 415.768 576.606 418.546C576.396 423.926 573.665 428.861 569.482 431.427L215.542 648.136C208.931 652.183 200.636 649.402 197.048 641.934L5.03999 242.248C3.85907 239.789 3.29179 237.025 3.39968 234.25" fill="#DADADA" fill-opacity="0.6"/>
<mask id="mask1_490_2241" style="mask-type:luminance" maskUnits="userSpaceOnUse" x="0" y="0" width="550" height="620">
<path fill-rule="evenodd" clip-rule="evenodd" d="M0 0H549.058V619.89H0V0Z" fill="white"/>
</mask>
<g mask="url(#mask1_490_2241)">
<path fill-rule="evenodd" clip-rule="evenodd" d="M547.136 411.656C547.217 409.536 546.819 407.402 545.983 405.482L374.254 9.33982C371.507 2.9949 364.697 0.35635 359.077 3.46058L8.2734 197.272C4.53678 199.336 2.10582 203.536 1.9246 208.231C1.84283 210.353 2.23816 212.489 3.0718 214.41L174.801 610.552C177.554 616.895 184.359 619.533 189.98 616.427L540.783 422.62C544.517 420.554 546.953 416.354 547.136 411.656M0.0124415 208.136C0.224012 202.649 3.06884 197.742 7.43006 195.333L358.234 1.5205C364.8 -2.10476 372.759 0.975613 375.974 8.39027L547.706 404.532C548.677 406.776 549.141 409.271 549.046 411.751C548.834 417.239 545.991 422.148 541.623 424.558L190.821 618.366C184.253 621.997 176.297 618.916 173.083 611.5L1.35014 215.356C0.378265 213.117 -0.0836504 210.618 0.0124415 208.136" fill="#DADADA" fill-opacity="0.6"/>
</g>
</g>
</svg>
