<svg width="41" height="68" viewBox="0 0 41 68" fill="none" xmlns="http://www.w3.org/2000/svg">
<path fill-rule="evenodd" clip-rule="evenodd" d="M3 19.5568C3.789 19.5568 4.563 19.2373 5.121 18.6778C5.6805 18.1198 6 17.3473 6 16.5568C6 15.7663 5.6805 14.9938 5.121 14.4358C4.563 13.8763 3.789 13.5568 3 13.5568C2.2095 13.5568 1.437 13.8763 0.8775 14.4358C0.3195 14.9938 0 15.7663 0 16.5568C0 17.3473 0.3195 18.1198 0.8775 18.6778C1.437 19.2373 2.2095 19.5568 3 19.5568Z" fill="#B041F2" fill-opacity="0.4"/>
<path fill-rule="evenodd" clip-rule="evenodd" d="M35.9925 19.5568H36.0075C37.6608 19.5568 39 18.2128 39 16.5568C39 14.9008 37.6608 13.5568 36.0075 13.5568H35.9925C34.3406 13.5568 33 14.9008 33 16.5568C33 18.2128 34.3406 19.5568 35.9925 19.5568Z" fill="#B041F2" fill-opacity="0.4"/>
<path fill-rule="evenodd" clip-rule="evenodd" d="M19.9925 19.5568H20.0075C21.6594 19.5568 23 18.2128 23 16.5568C23 14.9008 21.6594 13.5568 20.0075 13.5568H19.9925C18.3406 13.5568 17 14.9008 17 16.5568C17 18.2128 18.3406 19.5568 19.9925 19.5568Z" fill="#B041F2" fill-opacity="0.4"/>
<path fill-rule="evenodd" clip-rule="evenodd" d="M3 6.55682C3.789 6.55682 4.563 6.23732 5.121 5.67782C5.6805 5.11982 6 4.34582 6 3.55682C6 2.76632 5.6805 1.99382 5.121 1.43432C4.563 0.876324 3.789 0.556824 3 0.556824C2.2095 0.556824 1.437 0.876324 0.8775 1.43432C0.3195 1.99382 0 2.76632 0 3.55682C0 4.34582 0.3195 5.11982 0.8775 5.67782C1.437 6.23732 2.2095 6.55682 3 6.55682Z" fill="#B041F2" fill-opacity="0.4"/>
<path fill-rule="evenodd" clip-rule="evenodd" d="M35.9925 6.55682H36.0075C37.6608 6.55682 39 5.21282 39 3.55682C39 1.90082 37.6608 0.556824 36.0075 0.556824H35.9925C34.3406 0.556824 33 1.90082 33 3.55682C33 5.21282 34.3406 6.55682 35.9925 6.55682Z" fill="#B041F2" fill-opacity="0.4"/>
<path fill-rule="evenodd" clip-rule="evenodd" d="M19.9925 6.55682H20.0075C21.6594 6.55682 23 5.21282 23 3.55682C23 1.90082 21.6594 0.556824 20.0075 0.556824H19.9925C18.3406 0.556824 17 1.90082 17 3.55682C17 5.21282 18.3406 6.55682 19.9925 6.55682Z" fill="#B041F2" fill-opacity="0.4"/>
<path fill-rule="evenodd" clip-rule="evenodd" d="M3 32.5568C3.789 32.5568 4.563 32.2373 5.121 31.6778C5.6805 31.1198 6 30.3473 6 29.5568C6 28.7678 5.6805 27.9938 5.121 27.4358C4.563 26.8763 3.789 26.5568 3 26.5568C2.2095 26.5568 1.437 26.8763 0.8775 27.4358C0.3195 27.9938 0 28.7678 0 29.5568C0 30.3473 0.3195 31.1198 0.8775 31.6778C1.437 32.2373 2.2095 32.5568 3 32.5568Z" fill="#B041F2" fill-opacity="0.4"/>
<path fill-rule="evenodd" clip-rule="evenodd" d="M35.9925 32.5568H36.0075C37.6608 32.5568 39 31.2128 39 29.5568C39 27.9008 37.6608 26.5568 36.0075 26.5568H35.9925C34.3406 26.5568 33 27.9008 33 29.5568C33 31.2128 34.3406 32.5568 35.9925 32.5568Z" fill="#B041F2" fill-opacity="0.4"/>
<path fill-rule="evenodd" clip-rule="evenodd" d="M19.9925 32.5568H20.0075C21.6594 32.5568 23 31.2128 23 29.5568C23 27.9008 21.6594 26.5568 20.0075 26.5568H19.9925C18.3406 26.5568 17 27.9008 17 29.5568C17 31.2128 18.3406 32.5568 19.9925 32.5568Z" fill="#B041F2" fill-opacity="0.4"/>
<path fill-rule="evenodd" clip-rule="evenodd" d="M3 45.5568C3.789 45.5568 4.563 45.2373 5.121 44.6778C5.6805 44.1198 6 43.3473 6 42.5568C6 41.7663 5.6805 40.9938 5.121 40.4358C4.563 39.8763 3.789 39.5568 3 39.5568C2.2095 39.5568 1.437 39.8763 0.8775 40.4358C0.3195 40.9938 0 41.7663 0 42.5568C0 43.3473 0.3195 44.1198 0.8775 44.6778C1.437 45.2373 2.2095 45.5568 3 45.5568Z" fill="#B041F2" fill-opacity="0.4"/>
<path fill-rule="evenodd" clip-rule="evenodd" d="M35.9925 45.5568H36.0075C37.6608 45.5568 39 44.2128 39 42.5568C39 40.9008 37.6608 39.5568 36.0075 39.5568H35.9925C34.3406 39.5568 33 40.9008 33 42.5568C33 44.2128 34.3406 45.5568 35.9925 45.5568Z" fill="#B041F2" fill-opacity="0.4"/>
<path fill-rule="evenodd" clip-rule="evenodd" d="M19.9925 45.5568H20.0075C21.6594 45.5568 23 44.2128 23 42.5568C23 40.9008 21.6594 39.5568 20.0075 39.5568H19.9925C18.3406 39.5568 17 40.9008 17 42.5568C17 44.2128 18.3406 45.5568 19.9925 45.5568Z" fill="#B041F2" fill-opacity="0.4"/>
<path fill-rule="evenodd" clip-rule="evenodd" d="M3 59.5568C3.789 59.5568 4.563 59.2373 5.121 58.6778C5.6805 58.1198 6 57.3473 6 56.5568C6 55.7678 5.6805 54.9938 5.121 54.4358C4.563 53.8763 3.789 53.5568 3 53.5568C2.2095 53.5568 1.437 53.8763 0.8775 54.4358C0.3195 54.9938 0 55.7678 0 56.5568C0 57.3473 0.3195 58.1198 0.8775 58.6778C1.437 59.2373 2.2095 59.5568 3 59.5568Z" fill="#B041F2" fill-opacity="0.4"/>
<path fill-rule="evenodd" clip-rule="evenodd" d="M35.9925 59.5568H36.0075C37.6608 59.5568 39 58.2128 39 56.5568C39 54.9008 37.6608 53.5568 36.0075 53.5568H35.9925C34.3406 53.5568 33 54.9008 33 56.5568C33 58.2128 34.3406 59.5568 35.9925 59.5568Z" fill="#B041F2" fill-opacity="0.4"/>
<path fill-rule="evenodd" clip-rule="evenodd" d="M19.9925 59.5568H20.0075C21.6594 59.5568 23 58.2128 23 56.5568C23 54.9008 21.6594 53.5568 20.0075 53.5568H19.9925C18.3406 53.5568 17 54.9008 17 56.5568C17 58.2128 18.3406 59.5568 19.9925 59.5568Z" fill="#B041F2" fill-opacity="0.4"/>
<path fill-rule="evenodd" clip-rule="evenodd" d="M3 72.5568C3.789 72.5568 4.563 72.2373 5.121 71.6793C5.6805 71.1198 6 70.3473 6 69.5568C6 68.7678 5.6805 67.9938 5.121 67.4358C4.563 66.8763 3.789 66.5568 3 66.5568C2.2095 66.5568 1.437 66.8763 0.8775 67.4358C0.3195 67.9938 0 68.7678 0 69.5568C0 70.3473 0.3195 71.1198 0.8775 71.6793C1.437 72.2373 2.2095 72.5568 3 72.5568Z" fill="#B041F2" fill-opacity="0.4"/>
<path fill-rule="evenodd" clip-rule="evenodd" d="M35.9925 72.5568H36.0075C37.6608 72.5568 39 71.2128 39 69.5568C39 67.9008 37.6608 66.5568 36.0075 66.5568H35.9925C34.3406 66.5568 33 67.9008 33 69.5568C33 71.2128 34.3406 72.5568 35.9925 72.5568Z" fill="#B041F2" fill-opacity="0.4"/>
<path fill-rule="evenodd" clip-rule="evenodd" d="M19.9925 72.5568H20.0075C21.6594 72.5568 23 71.2128 23 69.5568C23 67.9008 21.6594 66.5568 20.0075 66.5568H19.9925C18.3406 66.5568 17 67.9008 17 69.5568C17 71.2128 18.3406 72.5568 19.9925 72.5568Z" fill="#B041F2" fill-opacity="0.4"/>
</svg>
