<svg width="31" height="30" viewBox="0 0 31 30" fill="none" xmlns="http://www.w3.org/2000/svg">
<rect x="0.5" y="0.5" width="30" height="29" rx="14.5" fill="#23162F"/>
<rect x="0.5" y="0.5" width="30" height="29" rx="14.5" stroke="#342C3B"/>
<path d="M18.4219 11.4688L20.5312 13.5781C20.625 13.6719 20.625 13.8125 20.5312 13.9062L15.4219 19.0156L13.2422 19.25C12.9609 19.2969 12.7031 19.0391 12.75 18.7578L12.9844 16.5781L18.0938 11.4688C18.1875 11.375 18.3281 11.375 18.4219 11.4688ZM22.2188 10.9297C22.5703 11.2812 22.5703 11.8672 22.2188 12.2188L21.3984 13.0391C21.3047 13.1328 21.1641 13.1328 21.0703 13.0391L18.9609 10.9297C18.8672 10.8359 18.8672 10.6953 18.9609 10.6016L19.7812 9.78125C20.1328 9.42969 20.7188 9.42969 21.0703 9.78125L22.2188 10.9297ZM18 17.6328C18 17.5391 18.0234 17.4688 18.0703 17.4219L19.0078 16.4844C19.1953 16.3203 19.5 16.4375 19.5 16.6953V20.375C19.5 21.0078 18.9844 21.5 18.375 21.5H10.125C9.49219 21.5 9 21.0078 9 20.375V12.125C9 11.5156 9.49219 11 10.125 11H16.8047C17.0625 11 17.1797 11.3047 17.0156 11.4922L16.0781 12.4297C16.0312 12.4766 15.9609 12.5 15.8672 12.5H10.5V20H18V17.6328Z" fill="#BD6EFA"/>
</svg>
