<svg width="26" height="25" viewBox="0 0 26 25" fill="none" xmlns="http://www.w3.org/2000/svg">
<path d="M22.625 0.258789C24.0469 0.258789 25.25 1.46191 25.25 2.88379V22.1338C25.25 23.6104 24.0469 24.7588 22.625 24.7588H15.0781V16.4463H18.25L18.8516 12.5088H15.0781V9.99316C15.0781 8.89941 15.625 7.86035 17.3203 7.86035H19.0156V4.52441C19.0156 4.52441 17.4844 4.25098 15.9531 4.25098C12.8906 4.25098 10.8672 6.16504 10.8672 9.55566V12.5088H7.42188V16.4463H10.8672V24.7588H3.375C1.89844 24.7588 0.75 23.6104 0.75 22.1338V2.88379C0.75 1.46191 1.89844 0.258789 3.375 0.258789H22.625Z" fill="white"/>
</svg>
