<svg width="81" height="80" viewBox="0 0 81 80" fill="none" xmlns="http://www.w3.org/2000/svg">
<g filter="url(#filter0_b_366_971)">
<path d="M0.833496 39.8954C0.833496 17.8618 18.7999 0 40.8335 0C62.8671 0 80.8335 17.8618 80.8335 39.8954C80.8335 61.929 62.8671 79.7908 40.8335 79.7908C18.7999 79.7908 0.833496 61.929 0.833496 39.8954Z" fill="url(#paint0_radial_366_971)"/>
<path d="M1.3335 39.8954C1.3335 18.1396 19.0743 0.5 40.8335 0.5C62.5927 0.5 80.3335 18.1396 80.3335 39.8954C80.3335 61.6512 62.5927 79.2908 40.8335 79.2908C19.0743 79.2908 1.3335 61.6512 1.3335 39.8954Z" stroke="url(#paint1_radial_366_971)"/>
<path d="M1.3335 39.8954C1.3335 18.1396 19.0743 0.5 40.8335 0.5C62.5927 0.5 80.3335 18.1396 80.3335 39.8954C80.3335 61.6512 62.5927 79.2908 40.8335 79.2908C19.0743 79.2908 1.3335 61.6512 1.3335 39.8954Z" stroke="url(#paint2_radial_366_971)"/>
<path d="M1.3335 39.8954C1.3335 18.1396 19.0743 0.5 40.8335 0.5C62.5927 0.5 80.3335 18.1396 80.3335 39.8954C80.3335 61.6512 62.5927 79.2908 40.8335 79.2908C19.0743 79.2908 1.3335 61.6512 1.3335 39.8954Z" stroke="url(#paint3_radial_366_971)"/>
</g>
<defs>
<filter id="filter0_b_366_971" x="-4.1665" y="-5" width="90" height="89.7908" filterUnits="userSpaceOnUse" color-interpolation-filters="sRGB">
<feFlood flood-opacity="0" result="BackgroundImageFix"/>
<feGaussianBlur in="BackgroundImageFix" stdDeviation="2.5"/>
<feComposite in2="SourceAlpha" operator="in" result="effect1_backgroundBlur_366_971"/>
<feBlend mode="normal" in="SourceGraphic" in2="effect1_backgroundBlur_366_971" result="shape"/>
</filter>
<radialGradient id="paint0_radial_366_971" cx="0" cy="0" r="1" gradientUnits="userSpaceOnUse" gradientTransform="translate(7.52554) rotate(47.9449) scale(119.431 86.7751)">
<stop stop-color="white" stop-opacity="0.36"/>
<stop offset="1" stop-color="white" stop-opacity="0"/>
</radialGradient>
<radialGradient id="paint1_radial_366_971" cx="0" cy="0" r="1" gradientUnits="userSpaceOnUse" gradientTransform="translate(-41.763 8.1628) rotate(35.0407) scale(92.1512 54.3882)">
<stop stop-color="white"/>
<stop offset="1" stop-color="white" stop-opacity="0.06"/>
</radialGradient>
<radialGradient id="paint2_radial_366_971" cx="0" cy="0" r="1" gradientUnits="userSpaceOnUse" gradientTransform="translate(104.254 53.4008) rotate(161.385) scale(66.8428 45.1784)">
<stop stop-color="#8470FF"/>
<stop offset="1" stop-color="#865CFF" stop-opacity="0"/>
</radialGradient>
<radialGradient id="paint3_radial_366_971" cx="0" cy="0" r="1" gradientUnits="userSpaceOnUse" gradientTransform="translate(41.7045 -18.2359) rotate(47.2149) scale(44.643 32.0879)">
<stop/>
<stop offset="1" stop-color="white" stop-opacity="0"/>
</radialGradient>
</defs>
</svg>
