<svg width="26" height="25" viewBox="0 0 26 25" fill="none" xmlns="http://www.w3.org/2000/svg">
<path d="M13 9.61035C14.5859 9.61035 15.8984 10.9229 15.8984 12.5088C15.8984 13.0557 15.7344 13.5479 15.5156 13.9854C14.3672 15.9541 11.5781 15.9541 10.4297 13.9854C9.33594 12.0713 10.7031 9.61035 13 9.61035ZM19.7812 7.36816C20.2734 8.5166 20.1641 11.251 20.1641 12.5088C20.1641 13.8213 20.2734 16.5557 19.7812 17.7041C19.5078 18.4697 18.9062 19.0713 18.1406 19.3447C16.9922 19.8369 14.2578 19.7275 13 19.7275C11.6875 19.7275 8.95312 19.8369 7.80469 19.3447C7.03906 19.0713 6.4375 18.4697 6.16406 17.7041C5.72656 16.5557 5.78125 13.8213 5.78125 12.5088C5.78125 11.251 5.72656 8.5166 6.16406 7.36816C6.4375 6.60254 7.03906 6.00098 7.80469 5.72754C8.95312 5.23535 11.6875 5.34473 13 5.34473C14.2578 5.34473 16.9922 5.23535 18.1406 5.72754C18.9062 6.00098 19.5078 6.60254 19.7812 7.36816ZM13 16.9932C15.4609 17.0479 17.4844 15.0244 17.4844 12.5088C17.4844 11.7432 17.2656 10.9775 16.8828 10.2666C15.1328 7.31348 10.8125 7.31348 9.0625 10.2666C7.36719 13.2744 9.5 16.9932 13 16.9932ZM17.6484 8.89941C18.1953 8.89941 18.6875 8.46191 18.6875 7.86035C18.6875 7.69629 18.6328 7.47754 18.5234 7.31348C18.1406 6.65723 17.1562 6.65723 16.7188 7.31348C16.3359 8.02441 16.8281 8.89941 17.6484 8.89941ZM22.625 0.258789C24.0469 0.258789 25.25 1.46191 25.25 2.88379V22.1338C25.25 23.6104 24.0469 24.7588 22.625 24.7588H3.375C1.89844 24.7588 0.75 23.6104 0.75 22.1338V2.88379C0.75 1.46191 1.89844 0.258789 3.375 0.258789H22.625ZM21.6406 16.1182C21.75 14.6963 21.75 10.376 21.6406 8.9541C21.5859 7.53223 21.2578 6.27441 20.2734 5.29004C19.2344 4.25098 17.9766 3.92285 16.6094 3.86816C15.1328 3.75879 10.8125 3.75879 9.39062 3.86816C7.96875 3.92285 6.71094 4.25098 5.72656 5.23535C4.6875 6.27441 4.35938 7.53223 4.30469 8.89941C4.19531 10.376 4.19531 14.6963 4.30469 16.1182C4.35938 17.54 4.6875 18.7979 5.72656 19.7822C6.71094 20.8213 7.96875 21.1494 9.39062 21.2041C10.8125 21.3135 15.1328 21.3135 16.6094 21.2041C17.9766 21.1494 19.2344 20.8213 20.2734 19.7822C21.2578 18.7979 21.5859 17.54 21.6406 16.1182Z" fill="white"/>
</svg>
