<svg width="40" height="38" viewBox="0 0 40 38" fill="none" xmlns="http://www.w3.org/2000/svg">
<path d="M0.305542 10.1614C0.305542 5.03464 4.46875 0.882355 9.5955 0.895829L29.8365 0.949026C34.9442 0.962451 39.0778 5.10686 39.0778 10.2146V18.1008C39.0778 22.8541 35.4808 26.8365 30.7519 27.3186L10.511 29.3823C5.05038 29.939 0.305542 25.6533 0.305542 20.1644V17.5253V10.1614Z" fill="#D6A6FC"/>
<path d="M0.0957031 23.7152H38.8679V32.0986C38.8679 34.8766 36.6159 37.1286 33.838 37.1286H5.12566C2.34769 37.1286 0.0957031 34.8766 0.0957031 32.0986V23.7152Z" fill="#9924F5"/>
<path d="M0.0957031 14.0756C0.0957031 10.6031 2.91069 7.78815 6.38315 7.78815H32.79C36.2625 7.78815 39.0775 10.6031 39.0775 14.0756V22.4526C39.0775 25.7087 36.5917 28.426 33.3485 28.7152L6.94166 31.0702C3.26333 31.3982 0.0957031 28.5005 0.0957031 24.8076V20.3383V14.0756Z" fill="#BD6EFA"/>
<path d="M17.6273 26.694L11.1429 20.2097C10.7523 19.819 10.7523 19.155 11.1429 18.7643L12.5492 17.3581C12.9398 16.9675 13.5648 16.9675 13.9554 17.3581L18.3695 21.7331L27.7445 12.3581C28.1351 11.9675 28.7601 11.9675 29.1508 12.3581L30.557 13.7643C30.9476 14.155 30.9476 14.819 30.557 15.2097L19.0726 26.694C18.682 27.0847 18.0179 27.0847 17.6273 26.694Z" fill="white"/>
</svg>
