<svg width="75" height="30" viewBox="0 0 75 30" fill="none" xmlns="http://www.w3.org/2000/svg">
<path d="M7.60534 12V6.736L6.13334 8.72L4.96534 8.88L3.20534 6.736V12H0.29334V1.12H2.29334L5.57334 5.264L8.58134 1.12H10.5173V12H7.60534ZM15.4981 12V7.712L11.8021 1.408L14.8261 1.12L16.9381 5.04L19.1941 1.12H22.1861L18.4101 7.744V12H15.4981ZM29.2208 12V3.408H26.0208V1.12H35.3328L35.6048 3.408H32.1328V12H29.2208ZM41.4151 4.608L40.3751 7.568H42.5031L41.4151 4.608ZM42.9191 1.12L46.9831 11.712L44.1191 12L43.3351 9.856H39.5751L38.8231 12H35.9271L40.0071 1.12H42.9191ZM51.0621 7.712C50.3368 7.34933 49.6114 6.88 48.8861 6.304C48.1608 5.71733 47.7981 4.96 47.7981 4.032C47.8088 3.136 48.1768 2.39467 48.9021 1.808C49.6274 1.21067 50.6088 0.912 51.8461 0.912C52.3901 0.912 52.9501 0.992 53.5261 1.152C54.1128 1.30133 54.6194 1.52 55.0461 1.808L54.1821 3.776C53.6061 3.57333 53.1688 3.44533 52.8701 3.392C52.5714 3.328 52.2408 3.296 51.8781 3.296C51.5474 3.296 51.2861 3.376 51.0941 3.536C50.9021 3.68533 50.8061 3.86133 50.8061 4.064C50.8061 4.29867 50.9661 4.50667 51.2861 4.688C51.6168 4.85867 52.0061 5.06133 52.4541 5.296C53.2221 5.69067 53.9634 6.18667 54.6781 6.784C55.3928 7.38133 55.7501 8.12267 55.7501 9.008C55.7501 9.92533 55.3608 10.688 54.5821 11.296C53.8141 11.904 52.7581 12.208 51.4141 12.208C50.8594 12.208 50.2301 12.128 49.5261 11.968C48.8328 11.7973 48.2728 11.584 47.8461 11.328L48.8061 9.136C49.0834 9.30667 49.4728 9.46667 49.9741 9.616C50.4861 9.75467 50.9394 9.824 51.3341 9.824C51.7928 9.824 52.1394 9.73333 52.3741 9.552C52.6194 9.37067 52.7421 9.17867 52.7421 8.976C52.7421 8.784 52.5661 8.576 52.2141 8.352C51.8621 8.128 51.4781 7.91467 51.0621 7.712ZM57.2933 12V1.12H60.2053V4.896L64.5733 0.879999L66.8293 2.512L63.1333 5.968L67.5333 12H63.8373L61.0533 7.936L60.2053 8.736V12H57.2933ZM0.29334 30V19.12H4.86934C6.07467 19.12 7.12001 19.4453 8.00534 20.096C8.90134 20.7467 9.34934 21.728 9.34934 23.04C9.34934 24.3413 8.87467 25.3013 7.92534 25.92C6.97601 26.528 5.91467 26.832 4.74134 26.832H3.20534V30H0.29334ZM4.77334 21.408H3.20534V24.544H4.80534C5.25334 24.544 5.62134 24.4 5.90934 24.112C6.19734 23.824 6.34134 23.4667 6.34134 23.04C6.34134 22.56 6.20267 22.1707 5.92534 21.872C5.64801 21.5627 5.26401 21.408 4.77334 21.408ZM18.7576 30H10.9496V19.12H13.8616V27.712H18.4856L18.7576 30ZM24.5713 22.608L23.5313 25.568H25.6593L24.5713 22.608ZM26.0753 19.12L30.1393 29.712L27.2753 30L26.4913 27.856H22.7313L21.9793 30H19.0833L23.1633 19.12H26.0753ZM31.4183 30V19.12H34.1223L38.3143 25.024V19.12H41.2263V30H38.5063L34.3303 24.272V30H31.4183ZM43.4652 30V19.12H46.1692L50.3612 25.024V19.12H53.2732V30H50.5532L46.3772 24.272V30H43.4652ZM55.5121 30V19.12H62.7281L63.0001 21.408H58.4241V23.392H61.7681L62.0401 25.68H58.4241V27.712H63.2081L63.4801 30H55.5121ZM69.3983 21.408H67.8303V24.288H69.4303C69.8783 24.288 70.2463 24.1547 70.5343 23.888C70.8223 23.6107 70.9663 23.2587 70.9663 22.832C70.9663 22.352 70.8277 21.9947 70.5503 21.76C70.273 21.5253 69.889 21.408 69.3983 21.408ZM64.9183 30V19.12H69.4943C70.6997 19.12 71.745 19.4133 72.6303 20C73.5263 20.576 73.9743 21.52 73.9743 22.832C73.9743 23.4933 73.8357 24.064 73.5583 24.544C73.2917 25.024 72.9397 25.4133 72.5023 25.712L74.9023 30H71.5263L69.7663 26.576H67.8303V30H64.9183Z" fill="#BD6EFA"/>
</svg>
