<svg width="154" height="152" viewBox="0 0 154 152" fill="none" xmlns="http://www.w3.org/2000/svg">
<circle cx="66.169" cy="68.1943" r="60.8756" fill="url(#paint0_radial_208_6571)"/>
<circle cx="73.9362" cy="80.7808" r="66.9254" fill="url(#paint1_radial_208_6571)"/>
<circle cx="88.9965" cy="68.9248" r="59.3632" fill="url(#paint2_radial_208_6571)"/>
<circle cx="76.7564" cy="76.0001" r="61.6318" fill="#241B52" fill-opacity="0.9"/>
<path d="M92.1833 76.2556C92.3572 75.007 93.3587 73.9796 94.6194 73.9796H95.0177C96.2784 73.9796 97.3157 75.005 97.1734 76.2576C96.7143 80.2976 95.0102 83.911 92.061 87.0979C88.6599 90.7802 84.5236 92.9896 79.6519 93.726C76.7792 94.1603 77.2943 97.4434 78.2008 100.065C78.736 101.612 77.6553 103.392 76.0179 103.392C74.8267 103.392 73.861 102.426 73.861 101.235V95.6895C73.861 94.5606 73.0316 93.6145 71.9343 93.3493C67.8776 92.3692 64.3375 90.2853 61.314 87.0979C58.4424 83.9111 56.7832 80.2977 56.3361 76.2578C56.1975 75.0048 57.2344 73.9796 58.4951 73.9796H58.8934C60.1541 73.9796 61.1562 75.0067 61.3251 76.256C61.7746 79.5815 63.2416 82.413 65.7261 84.7504C68.8514 87.5121 72.5281 88.893 76.7564 88.893C80.9847 88.893 84.6155 87.5121 87.6488 84.7504C90.2087 82.4129 91.7202 79.5813 92.1833 76.2556ZM73.1716 56.0283V74.2558C73.1716 75.1764 73.4933 76.0049 74.1367 76.7413C74.8721 77.3857 75.7453 77.7079 76.7564 77.7079C77.6756 77.7079 78.4569 77.3857 79.1003 76.7413C79.8357 76.0969 80.2034 75.2684 80.2034 74.2558L80.3413 56.0283C80.3413 55.0157 79.9736 54.1871 79.2382 53.5427C78.5029 52.8063 77.6756 52.438 76.7564 52.438C75.8372 52.438 75.0099 52.8063 74.2746 53.5427C73.5392 54.1871 73.1716 55.0157 73.1716 56.0283ZM82.961 80.1935C81.2145 81.9426 79.1463 82.8172 76.7564 82.8172C74.3665 82.8172 72.2983 81.9426 70.5519 80.1935C68.8054 78.4444 67.9322 76.3731 67.9322 73.9796V56.3045C67.9322 53.911 68.8054 51.8397 70.5519 50.0906C72.2983 48.3415 74.3665 47.4669 76.7564 47.4669C79.1463 47.4669 81.2145 48.3415 82.961 50.0906C84.7074 51.8397 85.5807 53.911 85.5807 56.3045V73.9796C85.5807 76.3731 84.7074 78.4444 82.961 80.1935Z" fill="#FEFEFF"/>
<defs>
<radialGradient id="paint0_radial_208_6571" cx="0" cy="0" r="1" gradientUnits="userSpaceOnUse" gradientTransform="translate(66.169 68.1943) rotate(90) scale(60.8756)">
<stop offset="0.84375" stop-color="#A976E1"/>
<stop offset="1" stop-color="#5D43A5" stop-opacity="0"/>
</radialGradient>
<radialGradient id="paint1_radial_208_6571" cx="0" cy="0" r="1" gradientUnits="userSpaceOnUse" gradientTransform="translate(73.9362 80.7808) rotate(90) scale(66.9254)">
<stop offset="0.833333" stop-color="#93D9E2"/>
<stop offset="1" stop-color="#93D9E2" stop-opacity="0"/>
</radialGradient>
<radialGradient id="paint2_radial_208_6571" cx="0" cy="0" r="1" gradientUnits="userSpaceOnUse" gradientTransform="translate(88.9965 68.9248) rotate(90) scale(59.3632)">
<stop offset="0.708333" stop-color="#5050C8"/>
<stop offset="1" stop-color="#5050C8" stop-opacity="0"/>
</radialGradient>
</defs>
</svg>
