<svg width="154" height="152" viewBox="0 0 154 152" fill="none" xmlns="http://www.w3.org/2000/svg">
<circle cx="66.169" cy="68.1942" r="60.8756" fill="url(#paint0_radial_209_8617)"/>
<circle cx="73.9362" cy="80.7808" r="66.9254" fill="url(#paint1_radial_209_8617)"/>
<circle cx="88.9965" cy="68.9247" r="59.3632" fill="url(#paint2_radial_209_8617)"/>
<circle cx="76.7564" cy="76" r="61.6318" fill="#FCFAFF"/>
<path d="M92.1833 76.2555C92.3572 75.0068 93.3587 73.9795 94.6194 73.9795H95.0177C96.2784 73.9795 97.3157 75.0048 97.1734 76.2575C96.7143 80.2975 95.0102 83.9109 92.061 87.0977C89.1176 90.2846 85.6234 92.3682 81.5784 93.3486C80.4813 93.6146 79.6519 94.5605 79.6519 95.6894V101.109C79.6519 102.37 78.6299 103.392 77.3692 103.392H76.1436C74.8829 103.392 73.861 102.37 73.861 101.109V95.6894C73.861 94.5605 73.0316 93.6143 71.9343 93.3492C67.8776 92.369 64.3375 90.2852 61.314 87.0977C58.4424 83.911 56.7832 80.2976 56.3361 76.2577C56.1975 75.0047 57.2344 73.9795 58.4951 73.9795H58.8934C60.1541 73.9795 61.1562 75.0065 61.3251 76.2559C61.7746 79.5814 63.2416 82.4128 65.7261 84.7503C68.8514 87.512 72.5281 88.8929 76.7564 88.8929C80.9847 88.8929 84.6155 87.512 87.6488 84.7503C90.2087 82.4128 91.7202 79.5812 92.1833 76.2555ZM73.1716 56.0282V74.2557C73.1716 75.1762 73.4933 76.0048 74.1367 76.7412C74.8721 77.3856 75.7453 77.7078 76.7564 77.7078C77.6756 77.7078 78.4569 77.3856 79.1003 76.7412C79.8357 76.0968 80.2034 75.2683 80.2034 74.2557L80.3413 56.0282C80.3413 55.0155 79.9736 54.187 79.2382 53.5426C78.5029 52.8062 77.6756 52.4379 76.7564 52.4379C75.8372 52.4379 75.0099 52.8062 74.2746 53.5426C73.5392 54.187 73.1716 55.0155 73.1716 56.0282ZM82.961 80.1934C81.2145 81.9425 79.1463 82.817 76.7564 82.817C74.3665 82.817 72.2983 81.9425 70.5519 80.1934C68.8054 78.4443 67.9322 76.373 67.9322 73.9795V56.3044C67.9322 53.9109 68.8054 51.8395 70.5519 50.0904C72.2983 48.3413 74.3665 47.4668 76.7564 47.4668C79.1463 47.4668 81.2145 48.3413 82.961 50.0904C84.7074 51.8395 85.5807 53.9109 85.5807 56.3044V73.9795C85.5807 76.373 84.7074 78.4443 82.961 80.1934Z" fill="#BD6EFA"/>
<defs>
<radialGradient id="paint0_radial_209_8617" cx="0" cy="0" r="1" gradientUnits="userSpaceOnUse" gradientTransform="translate(66.169 68.1942) rotate(90) scale(60.8756)">
<stop offset="0.84375" stop-color="#A976E1"/>
<stop offset="1" stop-color="#5D43A5" stop-opacity="0"/>
</radialGradient>
<radialGradient id="paint1_radial_209_8617" cx="0" cy="0" r="1" gradientUnits="userSpaceOnUse" gradientTransform="translate(73.9362 80.7808) rotate(90) scale(66.9254)">
<stop offset="0.833333" stop-color="#93D9E2"/>
<stop offset="1" stop-color="#93D9E2" stop-opacity="0"/>
</radialGradient>
<radialGradient id="paint2_radial_209_8617" cx="0" cy="0" r="1" gradientUnits="userSpaceOnUse" gradientTransform="translate(88.9965 68.9247) rotate(90) scale(59.3632)">
<stop offset="0.708333" stop-color="#5050C8"/>
<stop offset="1" stop-color="#5050C8" stop-opacity="0"/>
</radialGradient>
</defs>
</svg>
