<svg width="81" height="88" viewBox="0 0 81 88" fill="none" xmlns="http://www.w3.org/2000/svg">
<g filter="url(#filter0_f_325_1592)">
<ellipse cx="40.077" cy="29.4909" rx="25.3846" ry="16.3673" fill="url(#paint0_radial_325_1592)" fill-opacity="0.2"/>
</g>
<path d="M44.6455 46.6963L48.3955 42.9463L30.833 32.8213L44.6455 46.6963ZM27.2705 32.0088L43.2705 48.0088L27.2705 64.0088C26.458 63.6338 25.8955 62.8213 25.8955 61.8213V34.2588C25.8955 33.2588 26.458 32.4463 27.2705 32.0088ZM53.833 46.1338C55.0205 47.0088 55.0205 49.0713 53.8955 49.9463L50.1455 52.0713L46.0205 48.0088L50.1455 44.0088L53.833 46.1338ZM30.833 63.1963L44.6455 49.3838L48.3955 53.1338L30.833 63.1963Z" fill="url(#paint1_linear_325_1592)"/>
<defs>
<filter id="filter0_f_325_1592" x="1.73785" y="0.169001" width="76.6786" height="58.6437" filterUnits="userSpaceOnUse" color-interpolation-filters="sRGB">
<feFlood flood-opacity="0" result="BackgroundImageFix"/>
<feBlend mode="normal" in="SourceGraphic" in2="BackgroundImageFix" result="shape"/>
<feGaussianBlur stdDeviation="6.47727" result="effect1_foregroundBlur_325_1592"/>
</filter>
<radialGradient id="paint0_radial_325_1592" cx="0" cy="0" r="1" gradientUnits="userSpaceOnUse" gradientTransform="translate(40.077 13.1235) rotate(90) scale(24.2566 37.625)">
<stop stop-color="white"/>
<stop offset="1" stop-color="white" stop-opacity="0"/>
</radialGradient>
<linearGradient id="paint1_linear_325_1592" x1="30.1663" y1="79.6755" x2="73.5255" y2="45.9122" gradientUnits="userSpaceOnUse">
<stop stop-color="#982DEC"/>
<stop offset="0.572917" stop-color="#DC8DF8"/>
<stop offset="0.895833" stop-color="#A9C4F3"/>
</linearGradient>
</defs>
</svg>
