<svg width="35" height="41" viewBox="0 0 35 41" fill="none" xmlns="http://www.w3.org/2000/svg">
<path fill-rule="evenodd" clip-rule="evenodd" d="M1.58664 10.9113C2.00392 10.9113 2.41327 10.7423 2.70839 10.4464C3.00429 10.1513 3.17327 9.74272 3.17327 9.32464C3.17327 8.90656 3.00429 8.49801 2.70839 8.20289C2.41327 7.90698 2.00392 7.73801 1.58664 7.73801C1.16856 7.73801 0.759999 7.90698 0.464091 8.20289C0.168977 8.49801 0 8.90656 0 9.32464C0 9.74272 0.168977 10.1513 0.464091 10.4464C0.759999 10.7423 1.16856 10.9113 1.58664 10.9113Z" fill="#B041F2" fill-opacity="0.4"/>
<path fill-rule="evenodd" clip-rule="evenodd" d="M19.0357 10.9113H19.0436C19.918 10.9113 20.6263 10.2005 20.6263 9.32464C20.6263 8.44882 19.918 7.73801 19.0436 7.73801H19.0357C18.162 7.73801 17.453 8.44882 17.453 9.32464C17.453 10.2005 18.162 10.9113 19.0357 10.9113Z" fill="#B041F2" fill-opacity="0.4"/>
<path fill-rule="evenodd" clip-rule="evenodd" d="M10.5736 10.9113H10.5816C11.4552 10.9113 12.1642 10.2005 12.1642 9.32464C12.1642 8.44882 11.4552 7.73801 10.5816 7.73801H10.5736C9.70001 7.73801 8.99097 8.44882 8.99097 9.32464C8.99097 10.2005 9.70001 10.9113 10.5736 10.9113Z" fill="#B041F2" fill-opacity="0.4"/>
<path fill-rule="evenodd" clip-rule="evenodd" d="M28.0306 10.9113C28.4479 10.9113 28.8572 10.7423 29.1524 10.4464C29.4483 10.1513 29.6172 9.74272 29.6172 9.32464C29.6172 8.90656 29.4483 8.49801 29.1524 8.20289C28.8572 7.90698 28.4479 7.73801 28.0306 7.73801C27.6125 7.73801 27.204 7.90698 26.9081 8.20289C26.6129 8.49801 26.444 8.90656 26.444 9.32464C26.444 9.74272 26.6129 10.1513 26.9081 10.4464C27.204 10.7423 27.6125 10.9113 28.0306 10.9113Z" fill="#B041F2" fill-opacity="0.4"/>
<path fill-rule="evenodd" clip-rule="evenodd" d="M1.58664 4.03585C2.00392 4.03585 2.41327 3.86687 2.70839 3.57097C3.00429 3.27585 3.17327 2.8665 3.17327 2.44922C3.17327 2.03114 3.00429 1.62258 2.70839 1.32667C2.41327 1.03156 2.00392 0.862579 1.58664 0.862579C1.16856 0.862579 0.759999 1.03156 0.464091 1.32667C0.168977 1.62258 0 2.03114 0 2.44922C0 2.8665 0.168977 3.27585 0.464091 3.57097C0.759999 3.86687 1.16856 4.03585 1.58664 4.03585Z" fill="#B041F2" fill-opacity="0.4"/>
<path fill-rule="evenodd" clip-rule="evenodd" d="M19.0357 4.03585H19.0436C19.918 4.03585 20.6263 3.32504 20.6263 2.44922C20.6263 1.57339 19.918 0.862579 19.0436 0.862579H19.0357C18.162 0.862579 17.453 1.57339 17.453 2.44922C17.453 3.32504 18.162 4.03585 19.0357 4.03585Z" fill="#B041F2" fill-opacity="0.4"/>
<path fill-rule="evenodd" clip-rule="evenodd" d="M10.5736 4.03585H10.5816C11.4552 4.03585 12.1642 3.32504 12.1642 2.44922C12.1642 1.57339 11.4552 0.862579 10.5816 0.862579H10.5736C9.70001 0.862579 8.99097 1.57339 8.99097 2.44922C8.99097 3.32504 9.70001 4.03585 10.5736 4.03585Z" fill="#B041F2" fill-opacity="0.4"/>
<path fill-rule="evenodd" clip-rule="evenodd" d="M28.0306 4.03585C28.4479 4.03585 28.8572 3.86687 29.1524 3.57097C29.4483 3.27585 29.6172 2.8665 29.6172 2.44922C29.6172 2.03114 29.4483 1.62258 29.1524 1.32667C28.8572 1.03156 28.4479 0.862579 28.0306 0.862579C27.6125 0.862579 27.204 1.03156 26.9081 1.32667C26.6129 1.62258 26.444 2.03114 26.444 2.44922C26.444 2.8665 26.6129 3.27585 26.9081 3.57097C27.204 3.86687 27.6125 4.03585 28.0306 4.03585Z" fill="#B041F2" fill-opacity="0.4"/>
<path fill-rule="evenodd" clip-rule="evenodd" d="M1.58664 17.7867C2.00392 17.7867 2.41327 17.6177 2.70839 17.3218C3.00429 17.0267 3.17327 16.6181 3.17327 16.2C3.17327 15.7828 3.00429 15.3734 2.70839 15.0783C2.41327 14.7824 2.00392 14.6134 1.58664 14.6134C1.16856 14.6134 0.759999 14.7824 0.464091 15.0783C0.168977 15.3734 0 15.7828 0 16.2C0 16.6181 0.168977 17.0267 0.464091 17.3218C0.759999 17.6177 1.16856 17.7867 1.58664 17.7867Z" fill="#B041F2" fill-opacity="0.4"/>
<path fill-rule="evenodd" clip-rule="evenodd" d="M19.0357 17.7867H19.0436C19.918 17.7867 20.6263 17.0759 20.6263 16.2C20.6263 15.3242 19.918 14.6134 19.0436 14.6134H19.0357C18.162 14.6134 17.453 15.3242 17.453 16.2C17.453 17.0759 18.162 17.7867 19.0357 17.7867Z" fill="#B041F2" fill-opacity="0.4"/>
<path fill-rule="evenodd" clip-rule="evenodd" d="M10.5736 17.7867H10.5816C11.4552 17.7867 12.1642 17.0759 12.1642 16.2C12.1642 15.3242 11.4552 14.6134 10.5816 14.6134H10.5736C9.70001 14.6134 8.99097 15.3242 8.99097 16.2C8.99097 17.0759 9.70001 17.7867 10.5736 17.7867Z" fill="#B041F2" fill-opacity="0.4"/>
<path fill-rule="evenodd" clip-rule="evenodd" d="M28.0306 17.7867C28.4479 17.7867 28.8572 17.6177 29.1524 17.3218C29.4483 17.0267 29.6172 16.6181 29.6172 16.2C29.6172 15.7828 29.4483 15.3734 29.1524 15.0783C28.8572 14.7824 28.4479 14.6134 28.0306 14.6134C27.6125 14.6134 27.204 14.7824 26.9081 15.0783C26.6129 15.3734 26.444 15.7828 26.444 16.2C26.444 16.6181 26.6129 17.0267 26.9081 17.3218C27.204 17.6177 27.6125 17.7867 28.0306 17.7867Z" fill="#B041F2" fill-opacity="0.4"/>
<path fill-rule="evenodd" clip-rule="evenodd" d="M1.58664 24.6621C2.00392 24.6621 2.41327 24.4931 2.70839 24.1972C3.00429 23.9021 3.17327 23.4935 3.17327 23.0755C3.17327 22.6574 3.00429 22.2488 2.70839 21.9537C2.41327 21.6578 2.00392 21.4888 1.58664 21.4888C1.16856 21.4888 0.759999 21.6578 0.464091 21.9537C0.168977 22.2488 0 22.6574 0 23.0755C0 23.4935 0.168977 23.9021 0.464091 24.1972C0.759999 24.4931 1.16856 24.6621 1.58664 24.6621Z" fill="#B041F2" fill-opacity="0.4"/>
<path fill-rule="evenodd" clip-rule="evenodd" d="M19.0357 24.6621H19.0436C19.918 24.6621 20.6263 23.9513 20.6263 23.0755C20.6263 22.1996 19.918 21.4888 19.0436 21.4888H19.0357C18.162 21.4888 17.453 22.1996 17.453 23.0755C17.453 23.9513 18.162 24.6621 19.0357 24.6621Z" fill="#B041F2" fill-opacity="0.4"/>
<path fill-rule="evenodd" clip-rule="evenodd" d="M10.5736 24.6621H10.5816C11.4552 24.6621 12.1642 23.9513 12.1642 23.0755C12.1642 22.1996 11.4552 21.4888 10.5816 21.4888H10.5736C9.70001 21.4888 8.99097 22.1996 8.99097 23.0755C8.99097 23.9513 9.70001 24.6621 10.5736 24.6621Z" fill="#B041F2" fill-opacity="0.4"/>
<path fill-rule="evenodd" clip-rule="evenodd" d="M28.0306 24.6621C28.4479 24.6621 28.8572 24.4931 29.1524 24.1972C29.4483 23.9021 29.6172 23.4935 29.6172 23.0755C29.6172 22.6574 29.4483 22.2488 29.1524 21.9537C28.8572 21.6578 28.4479 21.4888 28.0306 21.4888C27.6125 21.4888 27.204 21.6578 26.9081 21.9537C26.6129 22.2488 26.444 22.6574 26.444 23.0755C26.444 23.4935 26.6129 23.9021 26.9081 24.1972C27.204 24.4931 27.6125 24.6621 28.0306 24.6621Z" fill="#B041F2" fill-opacity="0.4"/>
<path fill-rule="evenodd" clip-rule="evenodd" d="M1.58664 32.0664C2.00392 32.0664 2.41327 31.8974 2.70839 31.6015C3.00429 31.3064 3.17327 30.8978 3.17327 30.4798C3.17327 30.0625 3.00429 29.6531 2.70839 29.358C2.41327 29.0621 2.00392 28.8931 1.58664 28.8931C1.16856 28.8931 0.759999 29.0621 0.464091 29.358C0.168977 29.6531 0 30.0625 0 30.4798C0 30.8978 0.168977 31.3064 0.464091 31.6015C0.759999 31.8974 1.16856 32.0664 1.58664 32.0664Z" fill="#B041F2" fill-opacity="0.4"/>
<path fill-rule="evenodd" clip-rule="evenodd" d="M19.0357 32.0664H19.0436C19.918 32.0664 20.6263 31.3556 20.6263 30.4798C20.6263 29.6039 19.918 28.8931 19.0436 28.8931H19.0357C18.162 28.8931 17.453 29.6039 17.453 30.4798C17.453 31.3556 18.162 32.0664 19.0357 32.0664Z" fill="#B041F2" fill-opacity="0.4"/>
<path fill-rule="evenodd" clip-rule="evenodd" d="M10.5736 32.0664H10.5816C11.4552 32.0664 12.1642 31.3556 12.1642 30.4798C12.1642 29.6039 11.4552 28.8931 10.5816 28.8931H10.5736C9.70001 28.8931 8.99097 29.6039 8.99097 30.4798C8.99097 31.3556 9.70001 32.0664 10.5736 32.0664Z" fill="#B041F2" fill-opacity="0.4"/>
<path fill-rule="evenodd" clip-rule="evenodd" d="M28.0306 32.0664C28.4479 32.0664 28.8572 31.8974 29.1524 31.6015C29.4483 31.3064 29.6172 30.8978 29.6172 30.4798C29.6172 30.0625 29.4483 29.6531 29.1524 29.358C28.8572 29.0621 28.4479 28.8931 28.0306 28.8931C27.6125 28.8931 27.204 29.0621 26.9081 29.358C26.6129 29.6531 26.444 30.0625 26.444 30.4798C26.444 30.8978 26.6129 31.3064 26.9081 31.6015C27.204 31.8974 27.6125 32.0664 28.0306 32.0664Z" fill="#B041F2" fill-opacity="0.4"/>
<path fill-rule="evenodd" clip-rule="evenodd" d="M1.58664 38.9418C2.00392 38.9418 2.41327 38.7728 2.70839 38.4777C3.00429 38.1818 3.17327 37.7733 3.17327 37.3552C3.17327 36.9379 3.00429 36.5286 2.70839 36.2334C2.41327 35.9375 2.00392 35.7686 1.58664 35.7686C1.16856 35.7686 0.759999 35.9375 0.464091 36.2334C0.168977 36.5286 0 36.9379 0 37.3552C0 37.7733 0.168977 38.1818 0.464091 38.4777C0.759999 38.7728 1.16856 38.9418 1.58664 38.9418Z" fill="#B041F2" fill-opacity="0.4"/>
<path fill-rule="evenodd" clip-rule="evenodd" d="M19.0357 38.9418H19.0436C19.918 38.9418 20.6263 38.231 20.6263 37.3552C20.6263 36.4794 19.918 35.7686 19.0436 35.7686H19.0357C18.162 35.7686 17.453 36.4794 17.453 37.3552C17.453 38.231 18.162 38.9418 19.0357 38.9418Z" fill="#B041F2" fill-opacity="0.4"/>
<path fill-rule="evenodd" clip-rule="evenodd" d="M10.5736 38.9418H10.5816C11.4552 38.9418 12.1642 38.231 12.1642 37.3552C12.1642 36.4794 11.4552 35.7686 10.5816 35.7686H10.5736C9.70001 35.7686 8.99097 36.4794 8.99097 37.3552C8.99097 38.231 9.70001 38.9418 10.5736 38.9418Z" fill="#B041F2" fill-opacity="0.4"/>
<path fill-rule="evenodd" clip-rule="evenodd" d="M28.0306 38.9418C28.4479 38.9418 28.8572 38.7728 29.1524 38.4777C29.4483 38.1818 29.6172 37.7733 29.6172 37.3552C29.6172 36.9379 29.4483 36.5286 29.1524 36.2334C28.8572 35.9375 28.4479 35.7686 28.0306 35.7686C27.6125 35.7686 27.204 35.9375 26.9081 36.2334C26.6129 36.5286 26.444 36.9379 26.444 37.3552C26.444 37.7733 26.6129 38.1818 26.9081 38.4777C27.204 38.7728 27.6125 38.9418 28.0306 38.9418Z" fill="#B041F2" fill-opacity="0.4"/>
</svg>
