<svg width="333" height="329" viewBox="0 0 333 329" fill="none" xmlns="http://www.w3.org/2000/svg">
<circle cx="143.22" cy="147.606" r="131.764" fill="url(#paint0_radial_144_1585)"/>
<circle cx="160.033" cy="174.847" r="144.858" fill="url(#paint1_radial_144_1585)"/>
<circle cx="192.631" cy="149.186" r="128.49" fill="url(#paint2_radial_144_1585)"/>
<circle cx="166.137" cy="164.499" r="133.4" fill="url(#paint3_linear_144_1585)" fill-opacity="0.9"/>
<path d="M199.525 165.052C199.901 162.35 202.069 160.126 204.798 160.126H205.66C208.389 160.126 210.634 162.345 210.326 165.057C209.332 173.801 205.644 181.622 199.26 188.52C192.889 195.418 185.326 199.928 176.571 202.05C174.196 202.626 172.401 204.673 172.401 207.117V218.848C172.401 221.576 170.189 223.789 167.46 223.789H164.807C162.079 223.789 159.867 221.576 159.867 218.848V207.117C159.867 204.673 158.072 202.625 155.696 202.051C146.916 199.93 139.253 195.419 132.709 188.52C126.494 181.622 122.902 173.801 121.935 165.057C121.634 162.345 123.879 160.126 126.608 160.126H127.47C130.199 160.126 132.368 162.349 132.733 165.053C133.706 172.251 136.881 178.38 142.259 183.439C149.024 189.417 156.982 192.406 166.134 192.406C175.286 192.406 183.145 189.417 189.71 183.439C195.251 178.38 198.522 172.251 199.525 165.052ZM158.375 121.271V160.724C158.375 162.716 159.071 164.51 160.464 166.104C162.055 167.498 163.945 168.196 166.134 168.196C168.123 168.196 169.815 167.498 171.207 166.104C172.799 164.709 173.595 162.916 173.595 160.724L173.893 121.271C173.893 119.079 173.097 117.286 171.506 115.891C169.914 114.297 168.123 113.5 166.134 113.5C164.144 113.5 162.354 114.297 160.762 115.891C159.17 117.286 158.375 119.079 158.375 121.271ZM179.563 173.576C175.783 177.362 171.307 179.255 166.134 179.255C160.961 179.255 156.484 177.362 152.704 173.576C148.924 169.79 147.034 165.307 147.034 160.126V121.869C147.034 116.688 148.924 112.205 152.704 108.419C156.484 104.633 160.961 102.74 166.134 102.74C171.307 102.74 175.783 104.633 179.563 108.419C183.344 112.205 185.234 116.688 185.234 121.869V160.126C185.234 165.307 183.344 169.79 179.563 173.576Z" fill="#FEFEFF"/>
<defs>
<radialGradient id="paint0_radial_144_1585" cx="0" cy="0" r="1" gradientUnits="userSpaceOnUse" gradientTransform="translate(143.22 147.606) rotate(90) scale(131.764)">
<stop offset="0.84375" stop-color="#A976E1"/>
<stop offset="1" stop-color="#5D43A5" stop-opacity="0"/>
</radialGradient>
<radialGradient id="paint1_radial_144_1585" cx="0" cy="0" r="1" gradientUnits="userSpaceOnUse" gradientTransform="translate(160.033 174.847) rotate(90) scale(144.858)">
<stop offset="0.833333" stop-color="#93D9E2"/>
<stop offset="1" stop-color="#93D9E2" stop-opacity="0"/>
</radialGradient>
<radialGradient id="paint2_radial_144_1585" cx="0" cy="0" r="1" gradientUnits="userSpaceOnUse" gradientTransform="translate(192.631 149.186) rotate(90) scale(128.49)">
<stop offset="0.708333" stop-color="#5050C8"/>
<stop offset="1" stop-color="#5050C8" stop-opacity="0"/>
</radialGradient>
<linearGradient id="paint3_linear_144_1585" x1="246.637" y1="58.6989" x2="89.0868" y2="256.5" gradientUnits="userSpaceOnUse">
<stop stop-color="#241B52"/>
<stop offset="1" stop-color="#253262"/>
</linearGradient>
</defs>
</svg>
