<svg width="26" height="25" viewBox="0 0 26 25" fill="none" xmlns="http://www.w3.org/2000/svg">
<path d="M22.625 0.258789C24.0469 0.258789 25.25 1.46191 25.25 2.88379V22.1338C25.25 23.6104 24.0469 24.7588 22.625 24.7588H3.375C1.89844 24.7588 0.75 23.6104 0.75 22.1338V2.88379C0.75 1.46191 1.89844 0.258789 3.375 0.258789H22.625ZM19.9453 8.9541C20.6016 8.46191 21.2578 7.80566 21.75 7.09473C21.0938 7.36816 20.3828 7.58691 19.6719 7.6416C20.3828 7.2041 20.9844 6.54785 21.2578 5.67285C20.5469 6.11035 19.7812 6.38379 18.9609 6.54785C18.3047 5.83691 17.375 5.39941 16.3359 5.39941C14.1484 5.39941 12.3438 7.42285 12.8359 9.8291C9.88281 9.66504 7.20312 8.24316 5.45312 6.05566C5.125 6.60254 4.96094 7.2041 4.96094 7.91504C4.96094 9.11816 5.5625 10.2119 6.54688 10.8682C5.94531 10.8682 5.39844 10.7041 4.96094 10.4307V10.4854C4.96094 12.2354 6.16406 13.6572 7.80469 13.9854C7.25781 14.1494 6.76562 14.1494 6.16406 14.04C6.65625 15.4619 7.96875 16.501 9.55469 16.5557C8.29688 17.4854 6.76562 18.0869 5.07031 18.0869C4.79688 18.0869 4.52344 18.0869 4.25 18.0322C5.83594 19.0713 7.69531 19.6182 9.71875 19.6182C16.3359 19.6182 19.9453 14.1494 19.9453 9.44629C19.9453 9.28223 19.9453 9.11816 19.9453 8.9541Z" fill="white"/>
</svg>
